M48
; DRILL file {KiCad (5.1.5)-3} date 6/3/2020 5:34:56 PM
; FORMAT={-:-/ absolute / inch / decimal}
; #@! TF.CreationDate,2020-06-03T17:34:56-04:00
; #@! TF.GenerationSoftware,Kicad,Pcbnew,(5.1.5)-3
; #@! TF.FileFunction,Plated,1,2,PTH
FMAT,2
INCH
T1C0.0100
T2C0.0236
T3C0.0276
T4C0.0300
T5C0.0315
T6C0.0394
T7C0.0400
%
G90
G05
T1
X5.3294Y-4.982
X5.4401Y-4.9308
X5.666Y-5.579
T2
X6.1815Y-2.356
X6.2602Y-2.356
X5.1315Y-2.556
X5.2102Y-2.556
T3
X4.7315Y-1.956
X4.8315Y-1.956
X4.7315Y-2.106
X4.8315Y-2.106
X4.7315Y-1.806
X4.8315Y-1.806
X4.8315Y-2.556
X4.9315Y-2.556
T4
X5.0697Y-6.2528
X5.0697Y-6.3591
X5.1484Y-6.2528
X5.1484Y-6.3591
X5.2272Y-6.2528
X5.2272Y-6.3591
X5.3059Y-6.2528
X5.3059Y-6.3591
X5.3846Y-6.2528
X5.3846Y-6.3591
X5.4634Y-6.2528
X5.4634Y-6.3591
X5.5421Y-6.2528
X5.5421Y-6.3591
X5.6209Y-6.2528
X5.6209Y-6.3591
X5.6996Y-6.2528
X5.6996Y-6.3591
X5.7783Y-6.2528
X5.7783Y-6.3591
X5.8571Y-6.2528
X5.8571Y-6.3591
X5.9358Y-6.2528
X5.9358Y-6.3591
X6.0146Y-6.2528
X6.0146Y-6.3591
X6.0933Y-6.2528
X6.0933Y-6.3591
T5
X6.1315Y-3.806
X6.2299Y-3.806
X6.0315Y-5.156
X6.0315Y-5.256
X6.0315Y-5.356
X6.0315Y-5.456
X6.0315Y-5.556
X6.0315Y-5.656
X6.0315Y-5.756
X6.3315Y-5.156
X6.3315Y-5.256
X6.3315Y-5.356
X6.3315Y-5.456
X6.3315Y-5.556
X6.3315Y-5.656
X6.3315Y-5.756
X6.1331Y-2.606
X6.2315Y-2.606
X5.7831Y-2.606
X5.8815Y-2.606
X6.0315Y-3.956
X6.0315Y-4.056
X6.0315Y-4.156
X6.0315Y-4.256
X6.0315Y-4.356
X6.0315Y-4.456
X6.0315Y-4.556
X6.0315Y-4.656
X6.0315Y-4.756
X6.0315Y-4.856
X6.3315Y-3.956
X6.3315Y-4.056
X6.3315Y-4.156
X6.3315Y-4.256
X6.3315Y-4.356
X6.3315Y-4.456
X6.3315Y-4.556
X6.3315Y-4.656
X6.3315Y-4.756
X6.3315Y-4.856
X5.0815Y-2.956
X5.0815Y-3.056
X5.0815Y-3.156
X5.0815Y-3.256
X5.0815Y-3.356
X5.0815Y-3.456
X5.1815Y-2.856
X5.1815Y-2.956
X5.1815Y-3.056
X5.1815Y-3.156
X5.1815Y-3.256
X5.1815Y-3.356
X5.1815Y-3.456
X5.1815Y-3.556
X5.2815Y-2.856
X5.2815Y-2.956
X5.2815Y-3.456
X5.2815Y-3.556
X5.3815Y-2.856
X5.3815Y-2.956
X5.3815Y-3.456
X5.3815Y-3.556
X5.4815Y-2.856
X5.4815Y-2.956
X5.4815Y-3.456
X5.4815Y-3.556
X5.5815Y-2.856
X5.5815Y-2.956
X5.5815Y-3.456
X5.5815Y-3.556
X5.6815Y-2.856
X5.6815Y-2.956
X5.6815Y-3.056
X5.6815Y-3.156
X5.6815Y-3.256
X5.6815Y-3.356
X5.6815Y-3.456
X5.6815Y-3.556
X5.7815Y-2.956
X5.7815Y-3.056
X5.7815Y-3.156
X5.7815Y-3.256
X5.7815Y-3.356
X5.7815Y-3.456
X4.8315Y-2.9076
X4.8315Y-3.006
X6.0315Y-2.756
X6.0315Y-2.856
X6.0315Y-2.956
X6.0315Y-3.056
X6.0315Y-3.156
X6.0315Y-3.256
X6.0315Y-3.356
X6.0315Y-3.456
X6.0315Y-3.556
X6.0315Y-3.656
X6.3315Y-2.756
X6.3315Y-2.856
X6.3315Y-2.956
X6.3315Y-3.056
X6.3315Y-3.156
X6.3315Y-3.256
X6.3315Y-3.356
X6.3315Y-3.456
X6.3315Y-3.556
X6.3315Y-3.656
X5.5315Y-2.606
X5.6299Y-2.606
X6.1331Y-5.006
X6.2315Y-5.006
X4.9315Y-5.006
X5.0299Y-5.006
X4.8315Y-3.556
X4.8315Y-3.6544
X4.8315Y-3.956
X4.8315Y-4.056
X4.8315Y-4.156
X4.8315Y-4.256
X4.8315Y-4.356
X4.8315Y-4.456
X4.8315Y-4.556
X4.8315Y-4.656
X4.8315Y-4.756
X4.8315Y-4.856
X5.1315Y-3.956
X5.1315Y-4.056
X5.1315Y-4.156
X5.1315Y-4.256
X5.1315Y-4.356
X5.1315Y-4.456
X5.1315Y-4.556
X5.1315Y-4.656
X5.1315Y-4.756
X5.1315Y-4.856
X4.8315Y-5.156
X4.8315Y-5.256
X4.8315Y-5.356
X4.8315Y-5.456
X4.8315Y-5.556
X4.8315Y-5.656
X4.8315Y-5.756
X5.1315Y-5.156
X5.1315Y-5.256
X5.1315Y-5.356
X5.1315Y-5.456
X5.1315Y-5.556
X5.1315Y-5.656
X5.1315Y-5.756
X4.9315Y-3.806
X5.0299Y-3.806
T6
X4.9315Y-6.606
X4.9315Y-6.706
X5.0315Y-6.606
X5.0315Y-6.706
X5.1315Y-6.606
X5.1315Y-6.706
X5.2315Y-6.606
X5.2315Y-6.706
X5.3315Y-6.606
X5.3315Y-6.706
X5.4315Y-6.606
X5.4315Y-6.706
X5.5315Y-6.606
X5.5315Y-6.706
X5.6315Y-6.606
X5.6315Y-6.706
X5.7315Y-6.606
X5.7315Y-6.706
X5.8315Y-6.606
X5.8315Y-6.706
X5.9315Y-6.606
X5.9315Y-6.706
X6.0315Y-6.606
X6.0315Y-6.706
X6.1315Y-6.606
X6.1315Y-6.706
X6.2315Y-6.606
X6.2315Y-6.706
X5.5315Y-4.056
X5.5315Y-4.156
X5.5315Y-4.256
X5.5315Y-4.356
X5.5315Y-4.456
X5.5315Y-4.556
X5.5315Y-4.656
X5.5315Y-4.756
X5.5315Y-4.856
X5.5315Y-4.956
X5.5315Y-5.056
X5.5315Y-5.156
X5.5315Y-5.256
X5.5315Y-5.356
X5.6315Y-4.056
X5.6315Y-4.156
X5.6315Y-4.256
X5.6315Y-4.356
X5.6315Y-4.456
X5.6315Y-4.556
X5.6315Y-4.656
X5.6315Y-4.756
X5.6315Y-4.856
X5.6315Y-4.956
X5.6315Y-5.056
X5.6315Y-5.156
X5.6315Y-5.256
X5.6315Y-5.356
X5.4815Y-3.806
X5.5815Y-3.806
X5.6815Y-3.806
X5.0315Y-1.906
X5.0315Y-2.006
X5.0315Y-2.106
X5.0315Y-2.206
X5.0315Y-2.306
X5.1315Y-1.906
X5.1315Y-2.006
X5.1315Y-2.106
X5.1315Y-2.206
X5.1315Y-2.306
T7
X4.5815Y-2.456
X4.5815Y-2.556
X4.5815Y-2.656
X4.5815Y-2.756
X4.5815Y-2.856
X4.5815Y-2.956
X4.5815Y-3.056
X4.5815Y-3.156
X4.5815Y-3.256
X4.5815Y-3.356
X4.5815Y-3.456
X4.5815Y-3.556
X4.5815Y-3.656
X4.5815Y-3.756
X4.5815Y-3.856
X4.5815Y-3.956
X4.5815Y-4.056
X4.5815Y-4.156
X4.5815Y-4.256
X4.5815Y-4.356
X4.5815Y-4.456
X4.5815Y-4.556
X4.5815Y-4.656
X4.6815Y-2.456
X4.6815Y-2.556
X4.6815Y-2.656
X4.6815Y-2.756
X4.6815Y-2.856
X4.6815Y-2.956
X4.6815Y-3.056
X4.6815Y-3.156
X4.6815Y-3.256
X4.6815Y-3.356
X4.6815Y-3.456
X4.6815Y-3.556
X4.6815Y-3.656
X4.6815Y-3.756
X4.6815Y-3.856
X4.6815Y-3.956
X4.6815Y-4.056
X4.6815Y-4.156
X4.6815Y-4.256
X4.6815Y-4.356
X4.6815Y-4.456
X4.6815Y-4.556
X4.6815Y-4.656
X6.4815Y-2.456
X6.4815Y-2.556
X6.4815Y-2.656
X6.4815Y-2.756
X6.4815Y-2.856
X6.4815Y-2.956
X6.4815Y-3.056
X6.4815Y-3.156
X6.4815Y-3.256
X6.4815Y-3.356
X6.4815Y-3.456
X6.4815Y-3.556
X6.4815Y-3.656
X6.4815Y-3.756
X6.4815Y-3.856
X6.4815Y-3.956
X6.4815Y-4.056
X6.4815Y-4.156
X6.4815Y-4.256
X6.4815Y-4.356
X6.4815Y-4.456
X6.4815Y-4.556
X6.4815Y-4.656
X6.5815Y-2.456
X6.5815Y-2.556
X6.5815Y-2.656
X6.5815Y-2.756
X6.5815Y-2.856
X6.5815Y-2.956
X6.5815Y-3.056
X6.5815Y-3.156
X6.5815Y-3.256
X6.5815Y-3.356
X6.5815Y-3.456
X6.5815Y-3.556
X6.5815Y-3.656
X6.5815Y-3.756
X6.5815Y-3.856
X6.5815Y-3.956
X6.5815Y-4.056
X6.5815Y-4.156
X6.5815Y-4.256
X6.5815Y-4.356
X6.5815Y-4.456
X6.5815Y-4.556
X6.5815Y-4.656
T0
M30
