%FSLAX45Y45*%
G04 Gerber Fmt 4.5, Leading zero omitted, Abs format (unit mm)*
G04 Created by KiCad (PCBNEW (5.1.5)-3) date 2020-06-03 17:34:59*
%MOMM*%
%LPD*%
G04 APERTURE LIST*
%TA.AperFunction,Profile*%
%ADD10C,0.002540*%
%TD*%
%ADD11C,0.200000*%
%ADD12C,0.300000*%
G04 APERTURE END LIST*
D10*
X15574010Y-15140940D02*
X15637510Y-15140940D01*
X15574010Y-15382240D02*
X15574010Y-15140940D01*
X12780010Y-15140940D02*
X12716510Y-15140940D01*
X12780010Y-15382240D02*
X12780010Y-15140940D01*
X12780010Y-15382240D02*
X12145010Y-15382240D01*
X15574010Y-15382240D02*
X16336010Y-15382240D01*
X13034010Y-15382240D02*
X15320010Y-15382240D01*
X15320010Y-15382240D02*
X15320010Y-15140940D01*
X13034010Y-15382240D02*
X13034010Y-15140940D01*
X16463010Y-15509240D02*
X16463010Y-17795240D01*
X16336010Y-15382240D02*
G75*
G02X16463010Y-15509240I0J-127000D01*
G01*
X16463010Y-17795240D02*
G75*
G02X16336010Y-17922240I-127000J0D01*
G01*
X12145010Y-17922240D02*
G75*
G02X12018010Y-17795240I0J127000D01*
G01*
X12018010Y-15509240D02*
G75*
G02X12145010Y-15382240I127000J0D01*
G01*
X12018010Y-15509240D02*
X12018010Y-17795240D01*
X16336010Y-17922240D02*
X12145010Y-17922240D01*
X11446510Y-13870940D02*
G75*
G03X12716510Y-15140940I1270000J0D01*
G01*
X15637510Y-15140940D02*
G75*
G03X16907510Y-13870940I0J1270000D01*
G01*
X12081510Y-4269740D02*
G75*
G03X11446510Y-4904740I0J-635000D01*
G01*
X13542010Y-4269740D02*
X12081510Y-4269740D01*
X13542010Y-6428740D02*
X13542010Y-4269740D01*
X15320010Y-6428740D02*
X13542010Y-6428740D01*
X15320010Y-4968240D02*
X15320010Y-6428740D01*
X16907510Y-4968240D02*
X15320010Y-4968240D01*
X16907510Y-13870940D02*
X16907510Y-4968240D01*
X13034010Y-15140940D02*
X15320010Y-15140940D01*
X11446510Y-4904740D02*
X11446510Y-13870940D01*
D11*
X15415260Y-15096490D02*
X15478760Y-15159990D01*
X15478760Y-15096490D02*
X15415260Y-15159990D01*
X15542260Y-15096490D02*
X15605760Y-15159990D01*
X15605760Y-15096490D02*
X15542260Y-15159990D01*
X15542260Y-15350490D02*
X15605760Y-15413990D01*
X15605760Y-15350490D02*
X15542260Y-15413990D01*
X15288260Y-15350490D02*
X15351760Y-15413990D01*
X15351760Y-15350490D02*
X15288260Y-15413990D01*
X15415260Y-15350490D02*
X15478760Y-15413990D01*
X15478760Y-15350490D02*
X15415260Y-15413990D01*
X12748260Y-15350490D02*
X12811760Y-15413990D01*
X12811760Y-15350490D02*
X12748260Y-15413990D01*
X12875260Y-15350490D02*
X12938760Y-15413990D01*
X12938760Y-15350490D02*
X12875260Y-15413990D01*
X15288260Y-15096490D02*
X15351760Y-15159990D01*
X15351760Y-15096490D02*
X15288260Y-15159990D01*
X13002260Y-15350490D02*
X13065760Y-15413990D01*
X13065760Y-15350490D02*
X13002260Y-15413990D01*
X13002260Y-15096490D02*
X13065760Y-15159990D01*
X13065760Y-15096490D02*
X13002260Y-15159990D01*
X12875260Y-15096490D02*
X12938760Y-15159990D01*
X12938760Y-15096490D02*
X12875260Y-15159990D01*
X12748260Y-15096490D02*
X12811760Y-15159990D01*
X12811760Y-15096490D02*
X12748260Y-15159990D01*
D12*
X11732811Y-18388081D02*
X11732811Y-18088081D01*
X11804240Y-18088081D01*
X11847097Y-18102367D01*
X11875669Y-18130939D01*
X11889954Y-18159510D01*
X11904240Y-18216653D01*
X11904240Y-18259510D01*
X11889954Y-18316653D01*
X11875669Y-18345224D01*
X11847097Y-18373796D01*
X11804240Y-18388081D01*
X11732811Y-18388081D01*
X12032811Y-18388081D02*
X12032811Y-18188081D01*
X12032811Y-18245224D02*
X12047097Y-18216653D01*
X12061383Y-18202367D01*
X12089954Y-18188081D01*
X12118526Y-18188081D01*
X12218526Y-18388081D02*
X12218526Y-18188081D01*
X12218526Y-18088081D02*
X12204240Y-18102367D01*
X12218526Y-18116653D01*
X12232811Y-18102367D01*
X12218526Y-18088081D01*
X12218526Y-18116653D01*
X12404240Y-18388081D02*
X12375669Y-18373796D01*
X12361383Y-18345224D01*
X12361383Y-18088081D01*
X12561383Y-18388081D02*
X12532811Y-18373796D01*
X12518526Y-18345224D01*
X12518526Y-18088081D01*
X12904240Y-18388081D02*
X12904240Y-18088081D01*
X13004240Y-18302367D01*
X13104240Y-18088081D01*
X13104240Y-18388081D01*
X13375669Y-18388081D02*
X13375669Y-18230939D01*
X13361383Y-18202367D01*
X13332811Y-18188081D01*
X13275669Y-18188081D01*
X13247097Y-18202367D01*
X13375669Y-18373796D02*
X13347097Y-18388081D01*
X13275669Y-18388081D01*
X13247097Y-18373796D01*
X13232811Y-18345224D01*
X13232811Y-18316653D01*
X13247097Y-18288081D01*
X13275669Y-18273796D01*
X13347097Y-18273796D01*
X13375669Y-18259510D01*
X13518526Y-18188081D02*
X13518526Y-18488081D01*
X13518526Y-18202367D02*
X13547097Y-18188081D01*
X13604240Y-18188081D01*
X13632811Y-18202367D01*
X13647097Y-18216653D01*
X13661383Y-18245224D01*
X13661383Y-18330939D01*
X13647097Y-18359510D01*
X13632811Y-18373796D01*
X13604240Y-18388081D01*
X13547097Y-18388081D01*
X13518526Y-18373796D01*
X13789954Y-18359510D02*
X13804240Y-18373796D01*
X13789954Y-18388081D01*
X13775669Y-18373796D01*
X13789954Y-18359510D01*
X13789954Y-18388081D01*
X13789954Y-18202367D02*
X13804240Y-18216653D01*
X13789954Y-18230939D01*
X13775669Y-18216653D01*
X13789954Y-18202367D01*
X13789954Y-18230939D01*
X11382883Y-18850617D02*
X11446383Y-18914117D01*
X11446383Y-18850617D02*
X11382883Y-18914117D01*
X11789954Y-18718081D02*
X11818526Y-18718081D01*
X11847097Y-18732367D01*
X11861383Y-18746653D01*
X11875669Y-18775224D01*
X11889954Y-18832367D01*
X11889954Y-18903796D01*
X11875669Y-18960939D01*
X11861383Y-18989510D01*
X11847097Y-19003796D01*
X11818526Y-19018081D01*
X11789954Y-19018081D01*
X11761383Y-19003796D01*
X11747097Y-18989510D01*
X11732811Y-18960939D01*
X11718526Y-18903796D01*
X11718526Y-18832367D01*
X11732811Y-18775224D01*
X11747097Y-18746653D01*
X11761383Y-18732367D01*
X11789954Y-18718081D01*
X12018526Y-18989510D02*
X12032811Y-19003796D01*
X12018526Y-19018081D01*
X12004240Y-19003796D01*
X12018526Y-18989510D01*
X12018526Y-19018081D01*
X12289954Y-18718081D02*
X12232811Y-18718081D01*
X12204240Y-18732367D01*
X12189954Y-18746653D01*
X12161383Y-18789510D01*
X12147097Y-18846653D01*
X12147097Y-18960939D01*
X12161383Y-18989510D01*
X12175669Y-19003796D01*
X12204240Y-19018081D01*
X12261383Y-19018081D01*
X12289954Y-19003796D01*
X12304240Y-18989510D01*
X12318526Y-18960939D01*
X12318526Y-18889510D01*
X12304240Y-18860939D01*
X12289954Y-18846653D01*
X12261383Y-18832367D01*
X12204240Y-18832367D01*
X12175669Y-18846653D01*
X12161383Y-18860939D01*
X12147097Y-18889510D01*
X12575669Y-18818081D02*
X12575669Y-19018081D01*
X12504240Y-18703796D02*
X12432811Y-18918081D01*
X12618526Y-18918081D01*
X12732811Y-19018081D02*
X12732811Y-18818081D01*
X12732811Y-18846653D02*
X12747097Y-18832367D01*
X12775669Y-18818081D01*
X12818526Y-18818081D01*
X12847097Y-18832367D01*
X12861383Y-18860939D01*
X12861383Y-19018081D01*
X12861383Y-18860939D02*
X12875669Y-18832367D01*
X12904240Y-18818081D01*
X12947097Y-18818081D01*
X12975669Y-18832367D01*
X12989954Y-18860939D01*
X12989954Y-19018081D01*
X13132811Y-19018081D02*
X13132811Y-18818081D01*
X13132811Y-18846653D02*
X13147097Y-18832367D01*
X13175669Y-18818081D01*
X13218526Y-18818081D01*
X13247097Y-18832367D01*
X13261383Y-18860939D01*
X13261383Y-19018081D01*
X13261383Y-18860939D02*
X13275669Y-18832367D01*
X13304240Y-18818081D01*
X13347097Y-18818081D01*
X13375669Y-18832367D01*
X13389954Y-18860939D01*
X13389954Y-19018081D01*
X13975669Y-18703796D02*
X13718526Y-19089510D01*
X14361383Y-18718081D02*
X14389954Y-18718081D01*
X14418526Y-18732367D01*
X14432811Y-18746653D01*
X14447097Y-18775224D01*
X14461383Y-18832367D01*
X14461383Y-18903796D01*
X14447097Y-18960939D01*
X14432811Y-18989510D01*
X14418526Y-19003796D01*
X14389954Y-19018081D01*
X14361383Y-19018081D01*
X14332811Y-19003796D01*
X14318526Y-18989510D01*
X14304240Y-18960939D01*
X14289954Y-18903796D01*
X14289954Y-18832367D01*
X14304240Y-18775224D01*
X14318526Y-18746653D01*
X14332811Y-18732367D01*
X14361383Y-18718081D01*
X14589954Y-18989510D02*
X14604240Y-19003796D01*
X14589954Y-19018081D01*
X14575669Y-19003796D01*
X14589954Y-18989510D01*
X14589954Y-19018081D01*
X14789954Y-18718081D02*
X14818526Y-18718081D01*
X14847097Y-18732367D01*
X14861383Y-18746653D01*
X14875669Y-18775224D01*
X14889954Y-18832367D01*
X14889954Y-18903796D01*
X14875669Y-18960939D01*
X14861383Y-18989510D01*
X14847097Y-19003796D01*
X14818526Y-19018081D01*
X14789954Y-19018081D01*
X14761383Y-19003796D01*
X14747097Y-18989510D01*
X14732811Y-18960939D01*
X14718526Y-18903796D01*
X14718526Y-18832367D01*
X14732811Y-18775224D01*
X14747097Y-18746653D01*
X14761383Y-18732367D01*
X14789954Y-18718081D01*
X15004240Y-18746653D02*
X15018526Y-18732367D01*
X15047097Y-18718081D01*
X15118526Y-18718081D01*
X15147097Y-18732367D01*
X15161383Y-18746653D01*
X15175669Y-18775224D01*
X15175669Y-18803796D01*
X15161383Y-18846653D01*
X14989954Y-19018081D01*
X15175669Y-19018081D01*
X15447097Y-18718081D02*
X15304240Y-18718081D01*
X15289954Y-18860939D01*
X15304240Y-18846653D01*
X15332811Y-18832367D01*
X15404240Y-18832367D01*
X15432811Y-18846653D01*
X15447097Y-18860939D01*
X15461383Y-18889510D01*
X15461383Y-18960939D01*
X15447097Y-18989510D01*
X15432811Y-19003796D01*
X15404240Y-19018081D01*
X15332811Y-19018081D01*
X15304240Y-19003796D01*
X15289954Y-18989510D01*
X15575669Y-18718081D02*
X15575669Y-18775224D01*
X15689954Y-18718081D02*
X15689954Y-18775224D01*
X16132811Y-19132367D02*
X16118526Y-19118081D01*
X16089954Y-19075224D01*
X16075669Y-19046653D01*
X16061383Y-19003796D01*
X16047097Y-18932367D01*
X16047097Y-18875224D01*
X16061383Y-18803796D01*
X16075669Y-18760939D01*
X16089954Y-18732367D01*
X16118526Y-18689510D01*
X16132811Y-18675224D01*
X16404240Y-19018081D02*
X16232811Y-19018081D01*
X16318526Y-19018081D02*
X16318526Y-18718081D01*
X16289954Y-18760939D01*
X16261383Y-18789510D01*
X16232811Y-18803796D01*
X16518526Y-18746653D02*
X16532811Y-18732367D01*
X16561383Y-18718081D01*
X16632811Y-18718081D01*
X16661383Y-18732367D01*
X16675669Y-18746653D01*
X16689954Y-18775224D01*
X16689954Y-18803796D01*
X16675669Y-18846653D01*
X16504240Y-19018081D01*
X16689954Y-19018081D01*
X17047097Y-19018081D02*
X17047097Y-18718081D01*
X17175669Y-19018081D02*
X17175669Y-18860939D01*
X17161383Y-18832367D01*
X17132811Y-18818081D01*
X17089954Y-18818081D01*
X17061383Y-18832367D01*
X17047097Y-18846653D01*
X17361383Y-19018081D02*
X17332811Y-19003796D01*
X17318526Y-18989510D01*
X17304240Y-18960939D01*
X17304240Y-18875224D01*
X17318526Y-18846653D01*
X17332811Y-18832367D01*
X17361383Y-18818081D01*
X17404240Y-18818081D01*
X17432811Y-18832367D01*
X17447097Y-18846653D01*
X17461383Y-18875224D01*
X17461383Y-18960939D01*
X17447097Y-18989510D01*
X17432811Y-19003796D01*
X17404240Y-19018081D01*
X17361383Y-19018081D01*
X17632811Y-19018081D02*
X17604240Y-19003796D01*
X17589954Y-18975224D01*
X17589954Y-18718081D01*
X17861383Y-19003796D02*
X17832811Y-19018081D01*
X17775669Y-19018081D01*
X17747097Y-19003796D01*
X17732811Y-18975224D01*
X17732811Y-18860939D01*
X17747097Y-18832367D01*
X17775669Y-18818081D01*
X17832811Y-18818081D01*
X17861383Y-18832367D01*
X17875669Y-18860939D01*
X17875669Y-18889510D01*
X17732811Y-18918081D01*
X17989954Y-19003796D02*
X18018526Y-19018081D01*
X18075669Y-19018081D01*
X18104240Y-19003796D01*
X18118526Y-18975224D01*
X18118526Y-18960939D01*
X18104240Y-18932367D01*
X18075669Y-18918081D01*
X18032811Y-18918081D01*
X18004240Y-18903796D01*
X17989954Y-18875224D01*
X17989954Y-18860939D01*
X18004240Y-18832367D01*
X18032811Y-18818081D01*
X18075669Y-18818081D01*
X18104240Y-18832367D01*
X18218526Y-19132367D02*
X18232811Y-19118081D01*
X18261383Y-19075224D01*
X18275669Y-19046653D01*
X18289954Y-19003796D01*
X18304240Y-18932367D01*
X18304240Y-18875224D01*
X18289954Y-18803796D01*
X18275669Y-18760939D01*
X18261383Y-18732367D01*
X18232811Y-18689510D01*
X18218526Y-18675224D01*
X18761383Y-19132367D02*
X18747097Y-19118081D01*
X18718526Y-19075224D01*
X18704240Y-19046653D01*
X18689954Y-19003796D01*
X18675669Y-18932367D01*
X18675669Y-18875224D01*
X18689954Y-18803796D01*
X18704240Y-18760939D01*
X18718526Y-18732367D01*
X18747097Y-18689510D01*
X18761383Y-18675224D01*
X18875669Y-18818081D02*
X18875669Y-19018081D01*
X18875669Y-18846653D02*
X18889954Y-18832367D01*
X18918526Y-18818081D01*
X18961383Y-18818081D01*
X18989954Y-18832367D01*
X19004240Y-18860939D01*
X19004240Y-19018081D01*
X19189954Y-19018081D02*
X19161383Y-19003796D01*
X19147097Y-18989510D01*
X19132811Y-18960939D01*
X19132811Y-18875224D01*
X19147097Y-18846653D01*
X19161383Y-18832367D01*
X19189954Y-18818081D01*
X19232811Y-18818081D01*
X19261383Y-18832367D01*
X19275669Y-18846653D01*
X19289954Y-18875224D01*
X19289954Y-18960939D01*
X19275669Y-18989510D01*
X19261383Y-19003796D01*
X19232811Y-19018081D01*
X19189954Y-19018081D01*
X19375669Y-18818081D02*
X19489954Y-18818081D01*
X19418526Y-18718081D02*
X19418526Y-18975224D01*
X19432811Y-19003796D01*
X19461383Y-19018081D01*
X19489954Y-19018081D01*
X19818526Y-18818081D02*
X19818526Y-19118081D01*
X19818526Y-18832367D02*
X19847097Y-18818081D01*
X19904240Y-18818081D01*
X19932811Y-18832367D01*
X19947097Y-18846653D01*
X19961383Y-18875224D01*
X19961383Y-18960939D01*
X19947097Y-18989510D01*
X19932811Y-19003796D01*
X19904240Y-19018081D01*
X19847097Y-19018081D01*
X19818526Y-19003796D01*
X20132811Y-19018081D02*
X20104240Y-19003796D01*
X20089954Y-18975224D01*
X20089954Y-18718081D01*
X20375669Y-19018081D02*
X20375669Y-18860939D01*
X20361383Y-18832367D01*
X20332811Y-18818081D01*
X20275669Y-18818081D01*
X20247097Y-18832367D01*
X20375669Y-19003796D02*
X20347097Y-19018081D01*
X20275669Y-19018081D01*
X20247097Y-19003796D01*
X20232811Y-18975224D01*
X20232811Y-18946653D01*
X20247097Y-18918081D01*
X20275669Y-18903796D01*
X20347097Y-18903796D01*
X20375669Y-18889510D01*
X20475669Y-18818081D02*
X20589954Y-18818081D01*
X20518526Y-18718081D02*
X20518526Y-18975224D01*
X20532811Y-19003796D01*
X20561383Y-19018081D01*
X20589954Y-19018081D01*
X20804240Y-19003796D02*
X20775669Y-19018081D01*
X20718526Y-19018081D01*
X20689954Y-19003796D01*
X20675669Y-18975224D01*
X20675669Y-18860939D01*
X20689954Y-18832367D01*
X20718526Y-18818081D01*
X20775669Y-18818081D01*
X20804240Y-18832367D01*
X20818526Y-18860939D01*
X20818526Y-18889510D01*
X20675669Y-18918081D01*
X21075669Y-19018081D02*
X21075669Y-18718081D01*
X21075669Y-19003796D02*
X21047097Y-19018081D01*
X20989954Y-19018081D01*
X20961383Y-19003796D01*
X20947097Y-18989510D01*
X20932811Y-18960939D01*
X20932811Y-18875224D01*
X20947097Y-18846653D01*
X20961383Y-18832367D01*
X20989954Y-18818081D01*
X21047097Y-18818081D01*
X21075669Y-18832367D01*
X21189954Y-19132367D02*
X21204240Y-19118081D01*
X21232811Y-19075224D01*
X21247097Y-19046653D01*
X21261383Y-19003796D01*
X21275669Y-18932367D01*
X21275669Y-18875224D01*
X21261383Y-18803796D01*
X21247097Y-18760939D01*
X21232811Y-18732367D01*
X21204240Y-18689510D01*
X21189954Y-18675224D01*
M02*
