%FSLAX45Y45*%
G04 Gerber Fmt 4.5, Leading zero omitted, Abs format (unit mm)*
G04 Created by KiCad (PCBNEW (5.1.5)-3) date 2020-06-03 17:34:59*
%MOMM*%
%LPD*%
G04 APERTURE LIST*
%TA.AperFunction,Profile*%
%ADD10C,0.002540*%
%TD*%
%ADD11C,0.200000*%
%ADD12C,0.300000*%
G04 APERTURE END LIST*
D10*
X15574010Y-15140940D02*
X15637510Y-15140940D01*
X15574010Y-15382240D02*
X15574010Y-15140940D01*
X12780010Y-15140940D02*
X12716510Y-15140940D01*
X12780010Y-15382240D02*
X12780010Y-15140940D01*
X12780010Y-15382240D02*
X12145010Y-15382240D01*
X15574010Y-15382240D02*
X16336010Y-15382240D01*
X13034010Y-15382240D02*
X15320010Y-15382240D01*
X15320010Y-15382240D02*
X15320010Y-15140940D01*
X13034010Y-15382240D02*
X13034010Y-15140940D01*
X16463010Y-15509240D02*
X16463010Y-17795240D01*
X16336010Y-15382240D02*
G75*
G02X16463010Y-15509240I0J-127000D01*
G01*
X16463010Y-17795240D02*
G75*
G02X16336010Y-17922240I-127000J0D01*
G01*
X12145010Y-17922240D02*
G75*
G02X12018010Y-17795240I0J127000D01*
G01*
X12018010Y-15509240D02*
G75*
G02X12145010Y-15382240I127000J0D01*
G01*
X12018010Y-15509240D02*
X12018010Y-17795240D01*
X16336010Y-17922240D02*
X12145010Y-17922240D01*
X11446510Y-13870940D02*
G75*
G03X12716510Y-15140940I1270000J0D01*
G01*
X15637510Y-15140940D02*
G75*
G03X16907510Y-13870940I0J1270000D01*
G01*
X12081510Y-4269740D02*
G75*
G03X11446510Y-4904740I0J-635000D01*
G01*
X13542010Y-4269740D02*
X12081510Y-4269740D01*
X13542010Y-6428740D02*
X13542010Y-4269740D01*
X15320010Y-6428740D02*
X13542010Y-6428740D01*
X15320010Y-4968240D02*
X15320010Y-6428740D01*
X16907510Y-4968240D02*
X15320010Y-4968240D01*
X16907510Y-13870940D02*
X16907510Y-4968240D01*
X13034010Y-15140940D02*
X15320010Y-15140940D01*
X11446510Y-4904740D02*
X11446510Y-13870940D01*
D11*
X13524040Y-12641670D02*
X13549440Y-12667070D01*
X13549440Y-12641670D02*
X13524040Y-12667070D01*
X13805170Y-12511490D02*
X13830570Y-12536890D01*
X13830570Y-12511490D02*
X13805170Y-12536890D01*
X14379010Y-14158000D02*
X14404410Y-14183400D01*
X14404410Y-14158000D02*
X14379010Y-14183400D01*
X15731000Y-5984240D02*
G75*
G03X15731000Y-5984240I-30000J0D01*
G01*
X15931000Y-5984240D02*
G75*
G03X15931000Y-5984240I-30000J0D01*
G01*
X13064000Y-6492240D02*
G75*
G03X13064000Y-6492240I-30000J0D01*
G01*
X13264000Y-6492240D02*
G75*
G03X13264000Y-6492240I-30000J0D01*
G01*
X12018000Y-4933240D02*
X12018000Y-5003240D01*
X11983000Y-4968240D02*
X12053000Y-4968240D01*
X12272000Y-4933240D02*
X12272000Y-5003240D01*
X12237000Y-4968240D02*
X12307000Y-4968240D01*
X12018000Y-5314240D02*
X12018000Y-5384240D01*
X11983000Y-5349240D02*
X12053000Y-5349240D01*
X12272000Y-5314240D02*
X12272000Y-5384240D01*
X12237000Y-5349240D02*
X12307000Y-5349240D01*
X12018000Y-4552240D02*
X12018000Y-4622240D01*
X11983000Y-4587240D02*
X12053000Y-4587240D01*
X12272000Y-4552240D02*
X12272000Y-4622240D01*
X12237000Y-4587240D02*
X12307000Y-4587240D01*
X12272000Y-6457240D02*
X12272000Y-6527240D01*
X12237000Y-6492240D02*
X12307000Y-6492240D01*
X12526000Y-6457240D02*
X12526000Y-6527240D01*
X12491000Y-6492240D02*
X12561000Y-6492240D01*
X12903941Y-15909141D02*
X12903941Y-15855259D01*
X12850059Y-15855259D01*
X12850059Y-15909141D01*
X12903941Y-15909141D01*
X12903941Y-16179141D02*
X12903941Y-16125259D01*
X12850059Y-16125259D01*
X12850059Y-16179141D01*
X12903941Y-16179141D01*
X13103941Y-15909141D02*
X13103941Y-15855259D01*
X13050059Y-15855259D01*
X13050059Y-15909141D01*
X13103941Y-15909141D01*
X13103941Y-16179141D02*
X13103941Y-16125259D01*
X13050059Y-16125259D01*
X13050059Y-16179141D01*
X13103941Y-16179141D01*
X13303941Y-15909141D02*
X13303941Y-15855259D01*
X13250059Y-15855259D01*
X13250059Y-15909141D01*
X13303941Y-15909141D01*
X13303941Y-16179141D02*
X13303941Y-16125259D01*
X13250059Y-16125259D01*
X13250059Y-16179141D01*
X13303941Y-16179141D01*
X13503941Y-15909141D02*
X13503941Y-15855259D01*
X13450059Y-15855259D01*
X13450059Y-15909141D01*
X13503941Y-15909141D01*
X13503941Y-16179141D02*
X13503941Y-16125259D01*
X13450059Y-16125259D01*
X13450059Y-16179141D01*
X13503941Y-16179141D01*
X13703941Y-15909141D02*
X13703941Y-15855259D01*
X13650059Y-15855259D01*
X13650059Y-15909141D01*
X13703941Y-15909141D01*
X13703941Y-16179141D02*
X13703941Y-16125259D01*
X13650059Y-16125259D01*
X13650059Y-16179141D01*
X13703941Y-16179141D01*
X13903941Y-15909141D02*
X13903941Y-15855259D01*
X13850059Y-15855259D01*
X13850059Y-15909141D01*
X13903941Y-15909141D01*
X13903941Y-16179141D02*
X13903941Y-16125259D01*
X13850059Y-16125259D01*
X13850059Y-16179141D01*
X13903941Y-16179141D01*
X14103941Y-15909141D02*
X14103941Y-15855259D01*
X14050059Y-15855259D01*
X14050059Y-15909141D01*
X14103941Y-15909141D01*
X14103941Y-16179141D02*
X14103941Y-16125259D01*
X14050059Y-16125259D01*
X14050059Y-16179141D01*
X14103941Y-16179141D01*
X14303941Y-15909141D02*
X14303941Y-15855259D01*
X14250059Y-15855259D01*
X14250059Y-15909141D01*
X14303941Y-15909141D01*
X14303941Y-16179141D02*
X14303941Y-16125259D01*
X14250059Y-16125259D01*
X14250059Y-16179141D01*
X14303941Y-16179141D01*
X14503941Y-15909141D02*
X14503941Y-15855259D01*
X14450059Y-15855259D01*
X14450059Y-15909141D01*
X14503941Y-15909141D01*
X14503941Y-16179141D02*
X14503941Y-16125259D01*
X14450059Y-16125259D01*
X14450059Y-16179141D01*
X14503941Y-16179141D01*
X14703941Y-15909141D02*
X14703941Y-15855259D01*
X14650059Y-15855259D01*
X14650059Y-15909141D01*
X14703941Y-15909141D01*
X14703941Y-16179141D02*
X14703941Y-16125259D01*
X14650059Y-16125259D01*
X14650059Y-16179141D01*
X14703941Y-16179141D01*
X14903941Y-15909141D02*
X14903941Y-15855259D01*
X14850059Y-15855259D01*
X14850059Y-15909141D01*
X14903941Y-15909141D01*
X14903941Y-16179141D02*
X14903941Y-16125259D01*
X14850059Y-16125259D01*
X14850059Y-16179141D01*
X14903941Y-16179141D01*
X15103941Y-15909141D02*
X15103941Y-15855259D01*
X15050059Y-15855259D01*
X15050059Y-15909141D01*
X15103941Y-15909141D01*
X15103941Y-16179141D02*
X15103941Y-16125259D01*
X15050059Y-16125259D01*
X15050059Y-16179141D01*
X15103941Y-16179141D01*
X15303941Y-15909141D02*
X15303941Y-15855259D01*
X15250059Y-15855259D01*
X15250059Y-15909141D01*
X15303941Y-15909141D01*
X15303941Y-16179141D02*
X15303941Y-16125259D01*
X15250059Y-16125259D01*
X15250059Y-16179141D01*
X15303941Y-16179141D01*
X15503941Y-15909141D02*
X15503941Y-15855259D01*
X15450059Y-15855259D01*
X15450059Y-15909141D01*
X15503941Y-15909141D01*
X15503941Y-16179141D02*
X15503941Y-16125259D01*
X15450059Y-16125259D01*
X15450059Y-16179141D01*
X15503941Y-16179141D01*
X15574000Y-9707240D02*
X15614000Y-9667240D01*
X15574000Y-9627240D01*
X15534000Y-9667240D01*
X15574000Y-9707240D01*
X15824000Y-9707240D02*
X15864000Y-9667240D01*
X15824000Y-9627240D01*
X15784000Y-9667240D01*
X15824000Y-9707240D01*
X15320000Y-13136200D02*
X15360000Y-13096200D01*
X15320000Y-13056200D01*
X15280000Y-13096200D01*
X15320000Y-13136200D01*
X15320000Y-13390200D02*
X15360000Y-13350200D01*
X15320000Y-13310200D01*
X15280000Y-13350200D01*
X15320000Y-13390200D01*
X15320000Y-13644200D02*
X15360000Y-13604200D01*
X15320000Y-13564200D01*
X15280000Y-13604200D01*
X15320000Y-13644200D01*
X15320000Y-13898200D02*
X15360000Y-13858200D01*
X15320000Y-13818200D01*
X15280000Y-13858200D01*
X15320000Y-13898200D01*
X15320000Y-14152200D02*
X15360000Y-14112200D01*
X15320000Y-14072200D01*
X15280000Y-14112200D01*
X15320000Y-14152200D01*
X15320000Y-14406200D02*
X15360000Y-14366200D01*
X15320000Y-14326200D01*
X15280000Y-14366200D01*
X15320000Y-14406200D01*
X15320000Y-14660200D02*
X15360000Y-14620200D01*
X15320000Y-14580200D01*
X15280000Y-14620200D01*
X15320000Y-14660200D01*
X16082000Y-13136200D02*
X16122000Y-13096200D01*
X16082000Y-13056200D01*
X16042000Y-13096200D01*
X16082000Y-13136200D01*
X16082000Y-13390200D02*
X16122000Y-13350200D01*
X16082000Y-13310200D01*
X16042000Y-13350200D01*
X16082000Y-13390200D01*
X16082000Y-13644200D02*
X16122000Y-13604200D01*
X16082000Y-13564200D01*
X16042000Y-13604200D01*
X16082000Y-13644200D01*
X16082000Y-13898200D02*
X16122000Y-13858200D01*
X16082000Y-13818200D01*
X16042000Y-13858200D01*
X16082000Y-13898200D01*
X16082000Y-14152200D02*
X16122000Y-14112200D01*
X16082000Y-14072200D01*
X16042000Y-14112200D01*
X16082000Y-14152200D01*
X16082000Y-14406200D02*
X16122000Y-14366200D01*
X16082000Y-14326200D01*
X16042000Y-14366200D01*
X16082000Y-14406200D01*
X16082000Y-14660200D02*
X16122000Y-14620200D01*
X16082000Y-14580200D01*
X16042000Y-14620200D01*
X16082000Y-14660200D01*
X15578000Y-6659240D02*
X15618000Y-6619240D01*
X15578000Y-6579240D01*
X15538000Y-6619240D01*
X15578000Y-6659240D01*
X15828000Y-6659240D02*
X15868000Y-6619240D01*
X15828000Y-6579240D01*
X15788000Y-6619240D01*
X15828000Y-6659240D01*
X14689000Y-6659240D02*
X14729000Y-6619240D01*
X14689000Y-6579240D01*
X14649000Y-6619240D01*
X14689000Y-6659240D01*
X14939000Y-6659240D02*
X14979000Y-6619240D01*
X14939000Y-6579240D01*
X14899000Y-6619240D01*
X14939000Y-6659240D01*
X15320000Y-10088200D02*
X15360000Y-10048200D01*
X15320000Y-10008200D01*
X15280000Y-10048200D01*
X15320000Y-10088200D01*
X15320000Y-10342200D02*
X15360000Y-10302200D01*
X15320000Y-10262200D01*
X15280000Y-10302200D01*
X15320000Y-10342200D01*
X15320000Y-10596200D02*
X15360000Y-10556200D01*
X15320000Y-10516200D01*
X15280000Y-10556200D01*
X15320000Y-10596200D01*
X15320000Y-10850200D02*
X15360000Y-10810200D01*
X15320000Y-10770200D01*
X15280000Y-10810200D01*
X15320000Y-10850200D01*
X15320000Y-11104200D02*
X15360000Y-11064200D01*
X15320000Y-11024200D01*
X15280000Y-11064200D01*
X15320000Y-11104200D01*
X15320000Y-11358200D02*
X15360000Y-11318200D01*
X15320000Y-11278200D01*
X15280000Y-11318200D01*
X15320000Y-11358200D01*
X15320000Y-11612200D02*
X15360000Y-11572200D01*
X15320000Y-11532200D01*
X15280000Y-11572200D01*
X15320000Y-11612200D01*
X15320000Y-11866200D02*
X15360000Y-11826200D01*
X15320000Y-11786200D01*
X15280000Y-11826200D01*
X15320000Y-11866200D01*
X15320000Y-12120200D02*
X15360000Y-12080200D01*
X15320000Y-12040200D01*
X15280000Y-12080200D01*
X15320000Y-12120200D01*
X15320000Y-12374200D02*
X15360000Y-12334200D01*
X15320000Y-12294200D01*
X15280000Y-12334200D01*
X15320000Y-12374200D01*
X16082000Y-10088200D02*
X16122000Y-10048200D01*
X16082000Y-10008200D01*
X16042000Y-10048200D01*
X16082000Y-10088200D01*
X16082000Y-10342200D02*
X16122000Y-10302200D01*
X16082000Y-10262200D01*
X16042000Y-10302200D01*
X16082000Y-10342200D01*
X16082000Y-10596200D02*
X16122000Y-10556200D01*
X16082000Y-10516200D01*
X16042000Y-10556200D01*
X16082000Y-10596200D01*
X16082000Y-10850200D02*
X16122000Y-10810200D01*
X16082000Y-10770200D01*
X16042000Y-10810200D01*
X16082000Y-10850200D01*
X16082000Y-11104200D02*
X16122000Y-11064200D01*
X16082000Y-11024200D01*
X16042000Y-11064200D01*
X16082000Y-11104200D01*
X16082000Y-11358200D02*
X16122000Y-11318200D01*
X16082000Y-11278200D01*
X16042000Y-11318200D01*
X16082000Y-11358200D01*
X16082000Y-11612200D02*
X16122000Y-11572200D01*
X16082000Y-11532200D01*
X16042000Y-11572200D01*
X16082000Y-11612200D01*
X16082000Y-11866200D02*
X16122000Y-11826200D01*
X16082000Y-11786200D01*
X16042000Y-11826200D01*
X16082000Y-11866200D01*
X16082000Y-12120200D02*
X16122000Y-12080200D01*
X16082000Y-12040200D01*
X16042000Y-12080200D01*
X16082000Y-12120200D01*
X16082000Y-12374200D02*
X16122000Y-12334200D01*
X16082000Y-12294200D01*
X16042000Y-12334200D01*
X16082000Y-12374200D01*
X12907000Y-7548240D02*
X12947000Y-7508240D01*
X12907000Y-7468240D01*
X12867000Y-7508240D01*
X12907000Y-7548240D01*
X12907000Y-7802240D02*
X12947000Y-7762240D01*
X12907000Y-7722240D01*
X12867000Y-7762240D01*
X12907000Y-7802240D01*
X12907000Y-8056240D02*
X12947000Y-8016240D01*
X12907000Y-7976240D01*
X12867000Y-8016240D01*
X12907000Y-8056240D01*
X12907000Y-8310240D02*
X12947000Y-8270240D01*
X12907000Y-8230240D01*
X12867000Y-8270240D01*
X12907000Y-8310240D01*
X12907000Y-8564240D02*
X12947000Y-8524240D01*
X12907000Y-8484240D01*
X12867000Y-8524240D01*
X12907000Y-8564240D01*
X12907000Y-8818240D02*
X12947000Y-8778240D01*
X12907000Y-8738240D01*
X12867000Y-8778240D01*
X12907000Y-8818240D01*
X13161000Y-7294240D02*
X13201000Y-7254240D01*
X13161000Y-7214240D01*
X13121000Y-7254240D01*
X13161000Y-7294240D01*
X13161000Y-7548240D02*
X13201000Y-7508240D01*
X13161000Y-7468240D01*
X13121000Y-7508240D01*
X13161000Y-7548240D01*
X13161000Y-7802240D02*
X13201000Y-7762240D01*
X13161000Y-7722240D01*
X13121000Y-7762240D01*
X13161000Y-7802240D01*
X13161000Y-8056240D02*
X13201000Y-8016240D01*
X13161000Y-7976240D01*
X13121000Y-8016240D01*
X13161000Y-8056240D01*
X13161000Y-8310240D02*
X13201000Y-8270240D01*
X13161000Y-8230240D01*
X13121000Y-8270240D01*
X13161000Y-8310240D01*
X13161000Y-8564240D02*
X13201000Y-8524240D01*
X13161000Y-8484240D01*
X13121000Y-8524240D01*
X13161000Y-8564240D01*
X13161000Y-8818240D02*
X13201000Y-8778240D01*
X13161000Y-8738240D01*
X13121000Y-8778240D01*
X13161000Y-8818240D01*
X13161000Y-9072240D02*
X13201000Y-9032240D01*
X13161000Y-8992240D01*
X13121000Y-9032240D01*
X13161000Y-9072240D01*
X13415000Y-7294240D02*
X13455000Y-7254240D01*
X13415000Y-7214240D01*
X13375000Y-7254240D01*
X13415000Y-7294240D01*
X13415000Y-7548240D02*
X13455000Y-7508240D01*
X13415000Y-7468240D01*
X13375000Y-7508240D01*
X13415000Y-7548240D01*
X13415000Y-8818240D02*
X13455000Y-8778240D01*
X13415000Y-8738240D01*
X13375000Y-8778240D01*
X13415000Y-8818240D01*
X13415000Y-9072240D02*
X13455000Y-9032240D01*
X13415000Y-8992240D01*
X13375000Y-9032240D01*
X13415000Y-9072240D01*
X13669000Y-7294240D02*
X13709000Y-7254240D01*
X13669000Y-7214240D01*
X13629000Y-7254240D01*
X13669000Y-7294240D01*
X13669000Y-7548240D02*
X13709000Y-7508240D01*
X13669000Y-7468240D01*
X13629000Y-7508240D01*
X13669000Y-7548240D01*
X13669000Y-8818240D02*
X13709000Y-8778240D01*
X13669000Y-8738240D01*
X13629000Y-8778240D01*
X13669000Y-8818240D01*
X13669000Y-9072240D02*
X13709000Y-9032240D01*
X13669000Y-8992240D01*
X13629000Y-9032240D01*
X13669000Y-9072240D01*
X13923000Y-7294240D02*
X13963000Y-7254240D01*
X13923000Y-7214240D01*
X13883000Y-7254240D01*
X13923000Y-7294240D01*
X13923000Y-7548240D02*
X13963000Y-7508240D01*
X13923000Y-7468240D01*
X13883000Y-7508240D01*
X13923000Y-7548240D01*
X13923000Y-8818240D02*
X13963000Y-8778240D01*
X13923000Y-8738240D01*
X13883000Y-8778240D01*
X13923000Y-8818240D01*
X13923000Y-9072240D02*
X13963000Y-9032240D01*
X13923000Y-8992240D01*
X13883000Y-9032240D01*
X13923000Y-9072240D01*
X14177000Y-7294240D02*
X14217000Y-7254240D01*
X14177000Y-7214240D01*
X14137000Y-7254240D01*
X14177000Y-7294240D01*
X14177000Y-7548240D02*
X14217000Y-7508240D01*
X14177000Y-7468240D01*
X14137000Y-7508240D01*
X14177000Y-7548240D01*
X14177000Y-8818240D02*
X14217000Y-8778240D01*
X14177000Y-8738240D01*
X14137000Y-8778240D01*
X14177000Y-8818240D01*
X14177000Y-9072240D02*
X14217000Y-9032240D01*
X14177000Y-8992240D01*
X14137000Y-9032240D01*
X14177000Y-9072240D01*
X14431000Y-7294240D02*
X14471000Y-7254240D01*
X14431000Y-7214240D01*
X14391000Y-7254240D01*
X14431000Y-7294240D01*
X14431000Y-7548240D02*
X14471000Y-7508240D01*
X14431000Y-7468240D01*
X14391000Y-7508240D01*
X14431000Y-7548240D01*
X14431000Y-7802240D02*
X14471000Y-7762240D01*
X14431000Y-7722240D01*
X14391000Y-7762240D01*
X14431000Y-7802240D01*
X14431000Y-8056240D02*
X14471000Y-8016240D01*
X14431000Y-7976240D01*
X14391000Y-8016240D01*
X14431000Y-8056240D01*
X14431000Y-8310240D02*
X14471000Y-8270240D01*
X14431000Y-8230240D01*
X14391000Y-8270240D01*
X14431000Y-8310240D01*
X14431000Y-8564240D02*
X14471000Y-8524240D01*
X14431000Y-8484240D01*
X14391000Y-8524240D01*
X14431000Y-8564240D01*
X14431000Y-8818240D02*
X14471000Y-8778240D01*
X14431000Y-8738240D01*
X14391000Y-8778240D01*
X14431000Y-8818240D01*
X14431000Y-9072240D02*
X14471000Y-9032240D01*
X14431000Y-8992240D01*
X14391000Y-9032240D01*
X14431000Y-9072240D01*
X14685000Y-7548240D02*
X14725000Y-7508240D01*
X14685000Y-7468240D01*
X14645000Y-7508240D01*
X14685000Y-7548240D01*
X14685000Y-7802240D02*
X14725000Y-7762240D01*
X14685000Y-7722240D01*
X14645000Y-7762240D01*
X14685000Y-7802240D01*
X14685000Y-8056240D02*
X14725000Y-8016240D01*
X14685000Y-7976240D01*
X14645000Y-8016240D01*
X14685000Y-8056240D01*
X14685000Y-8310240D02*
X14725000Y-8270240D01*
X14685000Y-8230240D01*
X14645000Y-8270240D01*
X14685000Y-8310240D01*
X14685000Y-8564240D02*
X14725000Y-8524240D01*
X14685000Y-8484240D01*
X14645000Y-8524240D01*
X14685000Y-8564240D01*
X14685000Y-8818240D02*
X14725000Y-8778240D01*
X14685000Y-8738240D01*
X14645000Y-8778240D01*
X14685000Y-8818240D01*
X12272000Y-7425240D02*
X12312000Y-7385240D01*
X12272000Y-7345240D01*
X12232000Y-7385240D01*
X12272000Y-7425240D01*
X12272000Y-7675240D02*
X12312000Y-7635240D01*
X12272000Y-7595240D01*
X12232000Y-7635240D01*
X12272000Y-7675240D01*
X15320000Y-7040240D02*
X15360000Y-7000240D01*
X15320000Y-6960240D01*
X15280000Y-7000240D01*
X15320000Y-7040240D01*
X15320000Y-7294240D02*
X15360000Y-7254240D01*
X15320000Y-7214240D01*
X15280000Y-7254240D01*
X15320000Y-7294240D01*
X15320000Y-7548240D02*
X15360000Y-7508240D01*
X15320000Y-7468240D01*
X15280000Y-7508240D01*
X15320000Y-7548240D01*
X15320000Y-7802240D02*
X15360000Y-7762240D01*
X15320000Y-7722240D01*
X15280000Y-7762240D01*
X15320000Y-7802240D01*
X15320000Y-8056240D02*
X15360000Y-8016240D01*
X15320000Y-7976240D01*
X15280000Y-8016240D01*
X15320000Y-8056240D01*
X15320000Y-8310240D02*
X15360000Y-8270240D01*
X15320000Y-8230240D01*
X15280000Y-8270240D01*
X15320000Y-8310240D01*
X15320000Y-8564240D02*
X15360000Y-8524240D01*
X15320000Y-8484240D01*
X15280000Y-8524240D01*
X15320000Y-8564240D01*
X15320000Y-8818240D02*
X15360000Y-8778240D01*
X15320000Y-8738240D01*
X15280000Y-8778240D01*
X15320000Y-8818240D01*
X15320000Y-9072240D02*
X15360000Y-9032240D01*
X15320000Y-8992240D01*
X15280000Y-9032240D01*
X15320000Y-9072240D01*
X15320000Y-9326240D02*
X15360000Y-9286240D01*
X15320000Y-9246240D01*
X15280000Y-9286240D01*
X15320000Y-9326240D01*
X16082000Y-7040240D02*
X16122000Y-7000240D01*
X16082000Y-6960240D01*
X16042000Y-7000240D01*
X16082000Y-7040240D01*
X16082000Y-7294240D02*
X16122000Y-7254240D01*
X16082000Y-7214240D01*
X16042000Y-7254240D01*
X16082000Y-7294240D01*
X16082000Y-7548240D02*
X16122000Y-7508240D01*
X16082000Y-7468240D01*
X16042000Y-7508240D01*
X16082000Y-7548240D01*
X16082000Y-7802240D02*
X16122000Y-7762240D01*
X16082000Y-7722240D01*
X16042000Y-7762240D01*
X16082000Y-7802240D01*
X16082000Y-8056240D02*
X16122000Y-8016240D01*
X16082000Y-7976240D01*
X16042000Y-8016240D01*
X16082000Y-8056240D01*
X16082000Y-8310240D02*
X16122000Y-8270240D01*
X16082000Y-8230240D01*
X16042000Y-8270240D01*
X16082000Y-8310240D01*
X16082000Y-8564240D02*
X16122000Y-8524240D01*
X16082000Y-8484240D01*
X16042000Y-8524240D01*
X16082000Y-8564240D01*
X16082000Y-8818240D02*
X16122000Y-8778240D01*
X16082000Y-8738240D01*
X16042000Y-8778240D01*
X16082000Y-8818240D01*
X16082000Y-9072240D02*
X16122000Y-9032240D01*
X16082000Y-8992240D01*
X16042000Y-9032240D01*
X16082000Y-9072240D01*
X16082000Y-9326240D02*
X16122000Y-9286240D01*
X16082000Y-9246240D01*
X16042000Y-9286240D01*
X16082000Y-9326240D01*
X14050000Y-6659240D02*
X14090000Y-6619240D01*
X14050000Y-6579240D01*
X14010000Y-6619240D01*
X14050000Y-6659240D01*
X14300000Y-6659240D02*
X14340000Y-6619240D01*
X14300000Y-6579240D01*
X14260000Y-6619240D01*
X14300000Y-6659240D01*
X15578000Y-12755200D02*
X15618000Y-12715200D01*
X15578000Y-12675200D01*
X15538000Y-12715200D01*
X15578000Y-12755200D01*
X15828000Y-12755200D02*
X15868000Y-12715200D01*
X15828000Y-12675200D01*
X15788000Y-12715200D01*
X15828000Y-12755200D01*
X12526000Y-12755200D02*
X12566000Y-12715200D01*
X12526000Y-12675200D01*
X12486000Y-12715200D01*
X12526000Y-12755200D01*
X12776000Y-12755200D02*
X12816000Y-12715200D01*
X12776000Y-12675200D01*
X12736000Y-12715200D01*
X12776000Y-12755200D01*
X12272000Y-9072240D02*
X12312000Y-9032240D01*
X12272000Y-8992240D01*
X12232000Y-9032240D01*
X12272000Y-9072240D01*
X12272000Y-9322240D02*
X12312000Y-9282240D01*
X12272000Y-9242240D01*
X12232000Y-9282240D01*
X12272000Y-9322240D01*
X12272000Y-10088200D02*
X12312000Y-10048200D01*
X12272000Y-10008200D01*
X12232000Y-10048200D01*
X12272000Y-10088200D01*
X12272000Y-10342200D02*
X12312000Y-10302200D01*
X12272000Y-10262200D01*
X12232000Y-10302200D01*
X12272000Y-10342200D01*
X12272000Y-10596200D02*
X12312000Y-10556200D01*
X12272000Y-10516200D01*
X12232000Y-10556200D01*
X12272000Y-10596200D01*
X12272000Y-10850200D02*
X12312000Y-10810200D01*
X12272000Y-10770200D01*
X12232000Y-10810200D01*
X12272000Y-10850200D01*
X12272000Y-11104200D02*
X12312000Y-11064200D01*
X12272000Y-11024200D01*
X12232000Y-11064200D01*
X12272000Y-11104200D01*
X12272000Y-11358200D02*
X12312000Y-11318200D01*
X12272000Y-11278200D01*
X12232000Y-11318200D01*
X12272000Y-11358200D01*
X12272000Y-11612200D02*
X12312000Y-11572200D01*
X12272000Y-11532200D01*
X12232000Y-11572200D01*
X12272000Y-11612200D01*
X12272000Y-11866200D02*
X12312000Y-11826200D01*
X12272000Y-11786200D01*
X12232000Y-11826200D01*
X12272000Y-11866200D01*
X12272000Y-12120200D02*
X12312000Y-12080200D01*
X12272000Y-12040200D01*
X12232000Y-12080200D01*
X12272000Y-12120200D01*
X12272000Y-12374200D02*
X12312000Y-12334200D01*
X12272000Y-12294200D01*
X12232000Y-12334200D01*
X12272000Y-12374200D01*
X13034000Y-10088200D02*
X13074000Y-10048200D01*
X13034000Y-10008200D01*
X12994000Y-10048200D01*
X13034000Y-10088200D01*
X13034000Y-10342200D02*
X13074000Y-10302200D01*
X13034000Y-10262200D01*
X12994000Y-10302200D01*
X13034000Y-10342200D01*
X13034000Y-10596200D02*
X13074000Y-10556200D01*
X13034000Y-10516200D01*
X12994000Y-10556200D01*
X13034000Y-10596200D01*
X13034000Y-10850200D02*
X13074000Y-10810200D01*
X13034000Y-10770200D01*
X12994000Y-10810200D01*
X13034000Y-10850200D01*
X13034000Y-11104200D02*
X13074000Y-11064200D01*
X13034000Y-11024200D01*
X12994000Y-11064200D01*
X13034000Y-11104200D01*
X13034000Y-11358200D02*
X13074000Y-11318200D01*
X13034000Y-11278200D01*
X12994000Y-11318200D01*
X13034000Y-11358200D01*
X13034000Y-11612200D02*
X13074000Y-11572200D01*
X13034000Y-11532200D01*
X12994000Y-11572200D01*
X13034000Y-11612200D01*
X13034000Y-11866200D02*
X13074000Y-11826200D01*
X13034000Y-11786200D01*
X12994000Y-11826200D01*
X13034000Y-11866200D01*
X13034000Y-12120200D02*
X13074000Y-12080200D01*
X13034000Y-12040200D01*
X12994000Y-12080200D01*
X13034000Y-12120200D01*
X13034000Y-12374200D02*
X13074000Y-12334200D01*
X13034000Y-12294200D01*
X12994000Y-12334200D01*
X13034000Y-12374200D01*
X12272000Y-13136200D02*
X12312000Y-13096200D01*
X12272000Y-13056200D01*
X12232000Y-13096200D01*
X12272000Y-13136200D01*
X12272000Y-13390200D02*
X12312000Y-13350200D01*
X12272000Y-13310200D01*
X12232000Y-13350200D01*
X12272000Y-13390200D01*
X12272000Y-13644200D02*
X12312000Y-13604200D01*
X12272000Y-13564200D01*
X12232000Y-13604200D01*
X12272000Y-13644200D01*
X12272000Y-13898200D02*
X12312000Y-13858200D01*
X12272000Y-13818200D01*
X12232000Y-13858200D01*
X12272000Y-13898200D01*
X12272000Y-14152200D02*
X12312000Y-14112200D01*
X12272000Y-14072200D01*
X12232000Y-14112200D01*
X12272000Y-14152200D01*
X12272000Y-14406200D02*
X12312000Y-14366200D01*
X12272000Y-14326200D01*
X12232000Y-14366200D01*
X12272000Y-14406200D01*
X12272000Y-14660200D02*
X12312000Y-14620200D01*
X12272000Y-14580200D01*
X12232000Y-14620200D01*
X12272000Y-14660200D01*
X13034000Y-13136200D02*
X13074000Y-13096200D01*
X13034000Y-13056200D01*
X12994000Y-13096200D01*
X13034000Y-13136200D01*
X13034000Y-13390200D02*
X13074000Y-13350200D01*
X13034000Y-13310200D01*
X12994000Y-13350200D01*
X13034000Y-13390200D01*
X13034000Y-13644200D02*
X13074000Y-13604200D01*
X13034000Y-13564200D01*
X12994000Y-13604200D01*
X13034000Y-13644200D01*
X13034000Y-13898200D02*
X13074000Y-13858200D01*
X13034000Y-13818200D01*
X12994000Y-13858200D01*
X13034000Y-13898200D01*
X13034000Y-14152200D02*
X13074000Y-14112200D01*
X13034000Y-14072200D01*
X12994000Y-14112200D01*
X13034000Y-14152200D01*
X13034000Y-14406200D02*
X13074000Y-14366200D01*
X13034000Y-14326200D01*
X12994000Y-14366200D01*
X13034000Y-14406200D01*
X13034000Y-14660200D02*
X13074000Y-14620200D01*
X13034000Y-14580200D01*
X12994000Y-14620200D01*
X13034000Y-14660200D01*
X12526000Y-9707240D02*
X12566000Y-9667240D01*
X12526000Y-9627240D01*
X12486000Y-9667240D01*
X12526000Y-9707240D01*
X12776000Y-9707240D02*
X12816000Y-9667240D01*
X12776000Y-9627240D01*
X12736000Y-9667240D01*
X12776000Y-9707240D01*
X12476000Y-16729200D02*
X12576000Y-16829200D01*
X12576000Y-16729200D02*
X12476000Y-16829200D01*
X12576000Y-16779200D02*
G75*
G03X12576000Y-16779200I-50000J0D01*
G01*
X12476000Y-16983200D02*
X12576000Y-17083200D01*
X12576000Y-16983200D02*
X12476000Y-17083200D01*
X12576000Y-17033200D02*
G75*
G03X12576000Y-17033200I-50000J0D01*
G01*
X12730000Y-16729200D02*
X12830000Y-16829200D01*
X12830000Y-16729200D02*
X12730000Y-16829200D01*
X12830000Y-16779200D02*
G75*
G03X12830000Y-16779200I-50000J0D01*
G01*
X12730000Y-16983200D02*
X12830000Y-17083200D01*
X12830000Y-16983200D02*
X12730000Y-17083200D01*
X12830000Y-17033200D02*
G75*
G03X12830000Y-17033200I-50000J0D01*
G01*
X12984000Y-16729200D02*
X13084000Y-16829200D01*
X13084000Y-16729200D02*
X12984000Y-16829200D01*
X13084000Y-16779200D02*
G75*
G03X13084000Y-16779200I-50000J0D01*
G01*
X12984000Y-16983200D02*
X13084000Y-17083200D01*
X13084000Y-16983200D02*
X12984000Y-17083200D01*
X13084000Y-17033200D02*
G75*
G03X13084000Y-17033200I-50000J0D01*
G01*
X13238000Y-16729200D02*
X13338000Y-16829200D01*
X13338000Y-16729200D02*
X13238000Y-16829200D01*
X13338000Y-16779200D02*
G75*
G03X13338000Y-16779200I-50000J0D01*
G01*
X13238000Y-16983200D02*
X13338000Y-17083200D01*
X13338000Y-16983200D02*
X13238000Y-17083200D01*
X13338000Y-17033200D02*
G75*
G03X13338000Y-17033200I-50000J0D01*
G01*
X13492000Y-16729200D02*
X13592000Y-16829200D01*
X13592000Y-16729200D02*
X13492000Y-16829200D01*
X13592000Y-16779200D02*
G75*
G03X13592000Y-16779200I-50000J0D01*
G01*
X13492000Y-16983200D02*
X13592000Y-17083200D01*
X13592000Y-16983200D02*
X13492000Y-17083200D01*
X13592000Y-17033200D02*
G75*
G03X13592000Y-17033200I-50000J0D01*
G01*
X13746000Y-16729200D02*
X13846000Y-16829200D01*
X13846000Y-16729200D02*
X13746000Y-16829200D01*
X13846000Y-16779200D02*
G75*
G03X13846000Y-16779200I-50000J0D01*
G01*
X13746000Y-16983200D02*
X13846000Y-17083200D01*
X13846000Y-16983200D02*
X13746000Y-17083200D01*
X13846000Y-17033200D02*
G75*
G03X13846000Y-17033200I-50000J0D01*
G01*
X14000000Y-16729200D02*
X14100000Y-16829200D01*
X14100000Y-16729200D02*
X14000000Y-16829200D01*
X14100000Y-16779200D02*
G75*
G03X14100000Y-16779200I-50000J0D01*
G01*
X14000000Y-16983200D02*
X14100000Y-17083200D01*
X14100000Y-16983200D02*
X14000000Y-17083200D01*
X14100000Y-17033200D02*
G75*
G03X14100000Y-17033200I-50000J0D01*
G01*
X14254000Y-16729200D02*
X14354000Y-16829200D01*
X14354000Y-16729200D02*
X14254000Y-16829200D01*
X14354000Y-16779200D02*
G75*
G03X14354000Y-16779200I-50000J0D01*
G01*
X14254000Y-16983200D02*
X14354000Y-17083200D01*
X14354000Y-16983200D02*
X14254000Y-17083200D01*
X14354000Y-17033200D02*
G75*
G03X14354000Y-17033200I-50000J0D01*
G01*
X14508000Y-16729200D02*
X14608000Y-16829200D01*
X14608000Y-16729200D02*
X14508000Y-16829200D01*
X14608000Y-16779200D02*
G75*
G03X14608000Y-16779200I-50000J0D01*
G01*
X14508000Y-16983200D02*
X14608000Y-17083200D01*
X14608000Y-16983200D02*
X14508000Y-17083200D01*
X14608000Y-17033200D02*
G75*
G03X14608000Y-17033200I-50000J0D01*
G01*
X14762000Y-16729200D02*
X14862000Y-16829200D01*
X14862000Y-16729200D02*
X14762000Y-16829200D01*
X14862000Y-16779200D02*
G75*
G03X14862000Y-16779200I-50000J0D01*
G01*
X14762000Y-16983200D02*
X14862000Y-17083200D01*
X14862000Y-16983200D02*
X14762000Y-17083200D01*
X14862000Y-17033200D02*
G75*
G03X14862000Y-17033200I-50000J0D01*
G01*
X15016000Y-16729200D02*
X15116000Y-16829200D01*
X15116000Y-16729200D02*
X15016000Y-16829200D01*
X15116000Y-16779200D02*
G75*
G03X15116000Y-16779200I-50000J0D01*
G01*
X15016000Y-16983200D02*
X15116000Y-17083200D01*
X15116000Y-16983200D02*
X15016000Y-17083200D01*
X15116000Y-17033200D02*
G75*
G03X15116000Y-17033200I-50000J0D01*
G01*
X15270000Y-16729200D02*
X15370000Y-16829200D01*
X15370000Y-16729200D02*
X15270000Y-16829200D01*
X15370000Y-16779200D02*
G75*
G03X15370000Y-16779200I-50000J0D01*
G01*
X15270000Y-16983200D02*
X15370000Y-17083200D01*
X15370000Y-16983200D02*
X15270000Y-17083200D01*
X15370000Y-17033200D02*
G75*
G03X15370000Y-17033200I-50000J0D01*
G01*
X15524000Y-16729200D02*
X15624000Y-16829200D01*
X15624000Y-16729200D02*
X15524000Y-16829200D01*
X15624000Y-16779200D02*
G75*
G03X15624000Y-16779200I-50000J0D01*
G01*
X15524000Y-16983200D02*
X15624000Y-17083200D01*
X15624000Y-16983200D02*
X15524000Y-17083200D01*
X15624000Y-17033200D02*
G75*
G03X15624000Y-17033200I-50000J0D01*
G01*
X15778000Y-16729200D02*
X15878000Y-16829200D01*
X15878000Y-16729200D02*
X15778000Y-16829200D01*
X15878000Y-16779200D02*
G75*
G03X15878000Y-16779200I-50000J0D01*
G01*
X15778000Y-16983200D02*
X15878000Y-17083200D01*
X15878000Y-16983200D02*
X15778000Y-17083200D01*
X15878000Y-17033200D02*
G75*
G03X15878000Y-17033200I-50000J0D01*
G01*
X14000000Y-10252200D02*
X14100000Y-10352200D01*
X14100000Y-10252200D02*
X14000000Y-10352200D01*
X14100000Y-10302200D02*
G75*
G03X14100000Y-10302200I-50000J0D01*
G01*
X14000000Y-10506200D02*
X14100000Y-10606200D01*
X14100000Y-10506200D02*
X14000000Y-10606200D01*
X14100000Y-10556200D02*
G75*
G03X14100000Y-10556200I-50000J0D01*
G01*
X14000000Y-10760200D02*
X14100000Y-10860200D01*
X14100000Y-10760200D02*
X14000000Y-10860200D01*
X14100000Y-10810200D02*
G75*
G03X14100000Y-10810200I-50000J0D01*
G01*
X14000000Y-11014200D02*
X14100000Y-11114200D01*
X14100000Y-11014200D02*
X14000000Y-11114200D01*
X14100000Y-11064200D02*
G75*
G03X14100000Y-11064200I-50000J0D01*
G01*
X14000000Y-11268200D02*
X14100000Y-11368200D01*
X14100000Y-11268200D02*
X14000000Y-11368200D01*
X14100000Y-11318200D02*
G75*
G03X14100000Y-11318200I-50000J0D01*
G01*
X14000000Y-11522200D02*
X14100000Y-11622200D01*
X14100000Y-11522200D02*
X14000000Y-11622200D01*
X14100000Y-11572200D02*
G75*
G03X14100000Y-11572200I-50000J0D01*
G01*
X14000000Y-11776200D02*
X14100000Y-11876200D01*
X14100000Y-11776200D02*
X14000000Y-11876200D01*
X14100000Y-11826200D02*
G75*
G03X14100000Y-11826200I-50000J0D01*
G01*
X14000000Y-12030200D02*
X14100000Y-12130200D01*
X14100000Y-12030200D02*
X14000000Y-12130200D01*
X14100000Y-12080200D02*
G75*
G03X14100000Y-12080200I-50000J0D01*
G01*
X14000000Y-12284200D02*
X14100000Y-12384200D01*
X14100000Y-12284200D02*
X14000000Y-12384200D01*
X14100000Y-12334200D02*
G75*
G03X14100000Y-12334200I-50000J0D01*
G01*
X14000000Y-12538200D02*
X14100000Y-12638200D01*
X14100000Y-12538200D02*
X14000000Y-12638200D01*
X14100000Y-12588200D02*
G75*
G03X14100000Y-12588200I-50000J0D01*
G01*
X14000000Y-12792200D02*
X14100000Y-12892200D01*
X14100000Y-12792200D02*
X14000000Y-12892200D01*
X14100000Y-12842200D02*
G75*
G03X14100000Y-12842200I-50000J0D01*
G01*
X14000000Y-13046200D02*
X14100000Y-13146200D01*
X14100000Y-13046200D02*
X14000000Y-13146200D01*
X14100000Y-13096200D02*
G75*
G03X14100000Y-13096200I-50000J0D01*
G01*
X14000000Y-13300200D02*
X14100000Y-13400200D01*
X14100000Y-13300200D02*
X14000000Y-13400200D01*
X14100000Y-13350200D02*
G75*
G03X14100000Y-13350200I-50000J0D01*
G01*
X14000000Y-13554200D02*
X14100000Y-13654200D01*
X14100000Y-13554200D02*
X14000000Y-13654200D01*
X14100000Y-13604200D02*
G75*
G03X14100000Y-13604200I-50000J0D01*
G01*
X14254000Y-10252200D02*
X14354000Y-10352200D01*
X14354000Y-10252200D02*
X14254000Y-10352200D01*
X14354000Y-10302200D02*
G75*
G03X14354000Y-10302200I-50000J0D01*
G01*
X14254000Y-10506200D02*
X14354000Y-10606200D01*
X14354000Y-10506200D02*
X14254000Y-10606200D01*
X14354000Y-10556200D02*
G75*
G03X14354000Y-10556200I-50000J0D01*
G01*
X14254000Y-10760200D02*
X14354000Y-10860200D01*
X14354000Y-10760200D02*
X14254000Y-10860200D01*
X14354000Y-10810200D02*
G75*
G03X14354000Y-10810200I-50000J0D01*
G01*
X14254000Y-11014200D02*
X14354000Y-11114200D01*
X14354000Y-11014200D02*
X14254000Y-11114200D01*
X14354000Y-11064200D02*
G75*
G03X14354000Y-11064200I-50000J0D01*
G01*
X14254000Y-11268200D02*
X14354000Y-11368200D01*
X14354000Y-11268200D02*
X14254000Y-11368200D01*
X14354000Y-11318200D02*
G75*
G03X14354000Y-11318200I-50000J0D01*
G01*
X14254000Y-11522200D02*
X14354000Y-11622200D01*
X14354000Y-11522200D02*
X14254000Y-11622200D01*
X14354000Y-11572200D02*
G75*
G03X14354000Y-11572200I-50000J0D01*
G01*
X14254000Y-11776200D02*
X14354000Y-11876200D01*
X14354000Y-11776200D02*
X14254000Y-11876200D01*
X14354000Y-11826200D02*
G75*
G03X14354000Y-11826200I-50000J0D01*
G01*
X14254000Y-12030200D02*
X14354000Y-12130200D01*
X14354000Y-12030200D02*
X14254000Y-12130200D01*
X14354000Y-12080200D02*
G75*
G03X14354000Y-12080200I-50000J0D01*
G01*
X14254000Y-12284200D02*
X14354000Y-12384200D01*
X14354000Y-12284200D02*
X14254000Y-12384200D01*
X14354000Y-12334200D02*
G75*
G03X14354000Y-12334200I-50000J0D01*
G01*
X14254000Y-12538200D02*
X14354000Y-12638200D01*
X14354000Y-12538200D02*
X14254000Y-12638200D01*
X14354000Y-12588200D02*
G75*
G03X14354000Y-12588200I-50000J0D01*
G01*
X14254000Y-12792200D02*
X14354000Y-12892200D01*
X14354000Y-12792200D02*
X14254000Y-12892200D01*
X14354000Y-12842200D02*
G75*
G03X14354000Y-12842200I-50000J0D01*
G01*
X14254000Y-13046200D02*
X14354000Y-13146200D01*
X14354000Y-13046200D02*
X14254000Y-13146200D01*
X14354000Y-13096200D02*
G75*
G03X14354000Y-13096200I-50000J0D01*
G01*
X14254000Y-13300200D02*
X14354000Y-13400200D01*
X14354000Y-13300200D02*
X14254000Y-13400200D01*
X14354000Y-13350200D02*
G75*
G03X14354000Y-13350200I-50000J0D01*
G01*
X14254000Y-13554200D02*
X14354000Y-13654200D01*
X14354000Y-13554200D02*
X14254000Y-13654200D01*
X14354000Y-13604200D02*
G75*
G03X14354000Y-13604200I-50000J0D01*
G01*
X13873000Y-9617240D02*
X13973000Y-9717240D01*
X13973000Y-9617240D02*
X13873000Y-9717240D01*
X13973000Y-9667240D02*
G75*
G03X13973000Y-9667240I-50000J0D01*
G01*
X14127000Y-9617240D02*
X14227000Y-9717240D01*
X14227000Y-9617240D02*
X14127000Y-9717240D01*
X14227000Y-9667240D02*
G75*
G03X14227000Y-9667240I-50000J0D01*
G01*
X14381000Y-9617240D02*
X14481000Y-9717240D01*
X14481000Y-9617240D02*
X14381000Y-9717240D01*
X14481000Y-9667240D02*
G75*
G03X14481000Y-9667240I-50000J0D01*
G01*
X12730000Y-4791240D02*
X12830000Y-4891240D01*
X12830000Y-4791240D02*
X12730000Y-4891240D01*
X12830000Y-4841240D02*
G75*
G03X12830000Y-4841240I-50000J0D01*
G01*
X12730000Y-5045240D02*
X12830000Y-5145240D01*
X12830000Y-5045240D02*
X12730000Y-5145240D01*
X12830000Y-5095240D02*
G75*
G03X12830000Y-5095240I-50000J0D01*
G01*
X12730000Y-5299240D02*
X12830000Y-5399240D01*
X12830000Y-5299240D02*
X12730000Y-5399240D01*
X12830000Y-5349240D02*
G75*
G03X12830000Y-5349240I-50000J0D01*
G01*
X12730000Y-5553240D02*
X12830000Y-5653240D01*
X12830000Y-5553240D02*
X12730000Y-5653240D01*
X12830000Y-5603240D02*
G75*
G03X12830000Y-5603240I-50000J0D01*
G01*
X12730000Y-5807240D02*
X12830000Y-5907240D01*
X12830000Y-5807240D02*
X12730000Y-5907240D01*
X12830000Y-5857240D02*
G75*
G03X12830000Y-5857240I-50000J0D01*
G01*
X12984000Y-4791240D02*
X13084000Y-4891240D01*
X13084000Y-4791240D02*
X12984000Y-4891240D01*
X13084000Y-4841240D02*
G75*
G03X13084000Y-4841240I-50000J0D01*
G01*
X12984000Y-5045240D02*
X13084000Y-5145240D01*
X13084000Y-5045240D02*
X12984000Y-5145240D01*
X13084000Y-5095240D02*
G75*
G03X13084000Y-5095240I-50000J0D01*
G01*
X12984000Y-5299240D02*
X13084000Y-5399240D01*
X13084000Y-5299240D02*
X12984000Y-5399240D01*
X13084000Y-5349240D02*
G75*
G03X13084000Y-5349240I-50000J0D01*
G01*
X12984000Y-5553240D02*
X13084000Y-5653240D01*
X13084000Y-5553240D02*
X12984000Y-5653240D01*
X13084000Y-5603240D02*
G75*
G03X13084000Y-5603240I-50000J0D01*
G01*
X12984000Y-5807240D02*
X13084000Y-5907240D01*
X13084000Y-5807240D02*
X12984000Y-5907240D01*
X13084000Y-5857240D02*
G75*
G03X13084000Y-5857240I-50000J0D01*
G01*
X11586200Y-6187440D02*
X11687800Y-6289040D01*
X11687800Y-6187440D02*
X11586200Y-6289040D01*
X11637000Y-6187440D02*
X11637000Y-6289040D01*
X11586200Y-6238240D02*
X11687800Y-6238240D01*
X11586200Y-6441440D02*
X11687800Y-6543040D01*
X11687800Y-6441440D02*
X11586200Y-6543040D01*
X11637000Y-6441440D02*
X11637000Y-6543040D01*
X11586200Y-6492240D02*
X11687800Y-6492240D01*
X11586200Y-6695440D02*
X11687800Y-6797040D01*
X11687800Y-6695440D02*
X11586200Y-6797040D01*
X11637000Y-6695440D02*
X11637000Y-6797040D01*
X11586200Y-6746240D02*
X11687800Y-6746240D01*
X11586200Y-6949440D02*
X11687800Y-7051040D01*
X11687800Y-6949440D02*
X11586200Y-7051040D01*
X11637000Y-6949440D02*
X11637000Y-7051040D01*
X11586200Y-7000240D02*
X11687800Y-7000240D01*
X11586200Y-7203440D02*
X11687800Y-7305040D01*
X11687800Y-7203440D02*
X11586200Y-7305040D01*
X11637000Y-7203440D02*
X11637000Y-7305040D01*
X11586200Y-7254240D02*
X11687800Y-7254240D01*
X11586200Y-7457440D02*
X11687800Y-7559040D01*
X11687800Y-7457440D02*
X11586200Y-7559040D01*
X11637000Y-7457440D02*
X11637000Y-7559040D01*
X11586200Y-7508240D02*
X11687800Y-7508240D01*
X11586200Y-7711440D02*
X11687800Y-7813040D01*
X11687800Y-7711440D02*
X11586200Y-7813040D01*
X11637000Y-7711440D02*
X11637000Y-7813040D01*
X11586200Y-7762240D02*
X11687800Y-7762240D01*
X11586200Y-7965440D02*
X11687800Y-8067040D01*
X11687800Y-7965440D02*
X11586200Y-8067040D01*
X11637000Y-7965440D02*
X11637000Y-8067040D01*
X11586200Y-8016240D02*
X11687800Y-8016240D01*
X11586200Y-8219440D02*
X11687800Y-8321040D01*
X11687800Y-8219440D02*
X11586200Y-8321040D01*
X11637000Y-8219440D02*
X11637000Y-8321040D01*
X11586200Y-8270240D02*
X11687800Y-8270240D01*
X11586200Y-8473440D02*
X11687800Y-8575040D01*
X11687800Y-8473440D02*
X11586200Y-8575040D01*
X11637000Y-8473440D02*
X11637000Y-8575040D01*
X11586200Y-8524240D02*
X11687800Y-8524240D01*
X11586200Y-8727440D02*
X11687800Y-8829040D01*
X11687800Y-8727440D02*
X11586200Y-8829040D01*
X11637000Y-8727440D02*
X11637000Y-8829040D01*
X11586200Y-8778240D02*
X11687800Y-8778240D01*
X11586200Y-8981440D02*
X11687800Y-9083040D01*
X11687800Y-8981440D02*
X11586200Y-9083040D01*
X11637000Y-8981440D02*
X11637000Y-9083040D01*
X11586200Y-9032240D02*
X11687800Y-9032240D01*
X11586200Y-9235440D02*
X11687800Y-9337040D01*
X11687800Y-9235440D02*
X11586200Y-9337040D01*
X11637000Y-9235440D02*
X11637000Y-9337040D01*
X11586200Y-9286240D02*
X11687800Y-9286240D01*
X11586200Y-9489440D02*
X11687800Y-9591040D01*
X11687800Y-9489440D02*
X11586200Y-9591040D01*
X11637000Y-9489440D02*
X11637000Y-9591040D01*
X11586200Y-9540240D02*
X11687800Y-9540240D01*
X11586200Y-9743440D02*
X11687800Y-9845040D01*
X11687800Y-9743440D02*
X11586200Y-9845040D01*
X11637000Y-9743440D02*
X11637000Y-9845040D01*
X11586200Y-9794240D02*
X11687800Y-9794240D01*
X11586200Y-9997440D02*
X11687800Y-10099040D01*
X11687800Y-9997440D02*
X11586200Y-10099040D01*
X11637000Y-9997440D02*
X11637000Y-10099040D01*
X11586200Y-10048240D02*
X11687800Y-10048240D01*
X11586200Y-10251440D02*
X11687800Y-10353040D01*
X11687800Y-10251440D02*
X11586200Y-10353040D01*
X11637000Y-10251440D02*
X11637000Y-10353040D01*
X11586200Y-10302240D02*
X11687800Y-10302240D01*
X11586200Y-10505440D02*
X11687800Y-10607040D01*
X11687800Y-10505440D02*
X11586200Y-10607040D01*
X11637000Y-10505440D02*
X11637000Y-10607040D01*
X11586200Y-10556240D02*
X11687800Y-10556240D01*
X11586200Y-10759440D02*
X11687800Y-10861040D01*
X11687800Y-10759440D02*
X11586200Y-10861040D01*
X11637000Y-10759440D02*
X11637000Y-10861040D01*
X11586200Y-10810240D02*
X11687800Y-10810240D01*
X11586200Y-11013440D02*
X11687800Y-11115040D01*
X11687800Y-11013440D02*
X11586200Y-11115040D01*
X11637000Y-11013440D02*
X11637000Y-11115040D01*
X11586200Y-11064240D02*
X11687800Y-11064240D01*
X11586200Y-11267440D02*
X11687800Y-11369040D01*
X11687800Y-11267440D02*
X11586200Y-11369040D01*
X11637000Y-11267440D02*
X11637000Y-11369040D01*
X11586200Y-11318240D02*
X11687800Y-11318240D01*
X11586200Y-11521440D02*
X11687800Y-11623040D01*
X11687800Y-11521440D02*
X11586200Y-11623040D01*
X11637000Y-11521440D02*
X11637000Y-11623040D01*
X11586200Y-11572240D02*
X11687800Y-11572240D01*
X11586200Y-11775440D02*
X11687800Y-11877040D01*
X11687800Y-11775440D02*
X11586200Y-11877040D01*
X11637000Y-11775440D02*
X11637000Y-11877040D01*
X11586200Y-11826240D02*
X11687800Y-11826240D01*
X11840200Y-6187440D02*
X11941800Y-6289040D01*
X11941800Y-6187440D02*
X11840200Y-6289040D01*
X11891000Y-6187440D02*
X11891000Y-6289040D01*
X11840200Y-6238240D02*
X11941800Y-6238240D01*
X11840200Y-6441440D02*
X11941800Y-6543040D01*
X11941800Y-6441440D02*
X11840200Y-6543040D01*
X11891000Y-6441440D02*
X11891000Y-6543040D01*
X11840200Y-6492240D02*
X11941800Y-6492240D01*
X11840200Y-6695440D02*
X11941800Y-6797040D01*
X11941800Y-6695440D02*
X11840200Y-6797040D01*
X11891000Y-6695440D02*
X11891000Y-6797040D01*
X11840200Y-6746240D02*
X11941800Y-6746240D01*
X11840200Y-6949440D02*
X11941800Y-7051040D01*
X11941800Y-6949440D02*
X11840200Y-7051040D01*
X11891000Y-6949440D02*
X11891000Y-7051040D01*
X11840200Y-7000240D02*
X11941800Y-7000240D01*
X11840200Y-7203440D02*
X11941800Y-7305040D01*
X11941800Y-7203440D02*
X11840200Y-7305040D01*
X11891000Y-7203440D02*
X11891000Y-7305040D01*
X11840200Y-7254240D02*
X11941800Y-7254240D01*
X11840200Y-7457440D02*
X11941800Y-7559040D01*
X11941800Y-7457440D02*
X11840200Y-7559040D01*
X11891000Y-7457440D02*
X11891000Y-7559040D01*
X11840200Y-7508240D02*
X11941800Y-7508240D01*
X11840200Y-7711440D02*
X11941800Y-7813040D01*
X11941800Y-7711440D02*
X11840200Y-7813040D01*
X11891000Y-7711440D02*
X11891000Y-7813040D01*
X11840200Y-7762240D02*
X11941800Y-7762240D01*
X11840200Y-7965440D02*
X11941800Y-8067040D01*
X11941800Y-7965440D02*
X11840200Y-8067040D01*
X11891000Y-7965440D02*
X11891000Y-8067040D01*
X11840200Y-8016240D02*
X11941800Y-8016240D01*
X11840200Y-8219440D02*
X11941800Y-8321040D01*
X11941800Y-8219440D02*
X11840200Y-8321040D01*
X11891000Y-8219440D02*
X11891000Y-8321040D01*
X11840200Y-8270240D02*
X11941800Y-8270240D01*
X11840200Y-8473440D02*
X11941800Y-8575040D01*
X11941800Y-8473440D02*
X11840200Y-8575040D01*
X11891000Y-8473440D02*
X11891000Y-8575040D01*
X11840200Y-8524240D02*
X11941800Y-8524240D01*
X11840200Y-8727440D02*
X11941800Y-8829040D01*
X11941800Y-8727440D02*
X11840200Y-8829040D01*
X11891000Y-8727440D02*
X11891000Y-8829040D01*
X11840200Y-8778240D02*
X11941800Y-8778240D01*
X11840200Y-8981440D02*
X11941800Y-9083040D01*
X11941800Y-8981440D02*
X11840200Y-9083040D01*
X11891000Y-8981440D02*
X11891000Y-9083040D01*
X11840200Y-9032240D02*
X11941800Y-9032240D01*
X11840200Y-9235440D02*
X11941800Y-9337040D01*
X11941800Y-9235440D02*
X11840200Y-9337040D01*
X11891000Y-9235440D02*
X11891000Y-9337040D01*
X11840200Y-9286240D02*
X11941800Y-9286240D01*
X11840200Y-9489440D02*
X11941800Y-9591040D01*
X11941800Y-9489440D02*
X11840200Y-9591040D01*
X11891000Y-9489440D02*
X11891000Y-9591040D01*
X11840200Y-9540240D02*
X11941800Y-9540240D01*
X11840200Y-9743440D02*
X11941800Y-9845040D01*
X11941800Y-9743440D02*
X11840200Y-9845040D01*
X11891000Y-9743440D02*
X11891000Y-9845040D01*
X11840200Y-9794240D02*
X11941800Y-9794240D01*
X11840200Y-9997440D02*
X11941800Y-10099040D01*
X11941800Y-9997440D02*
X11840200Y-10099040D01*
X11891000Y-9997440D02*
X11891000Y-10099040D01*
X11840200Y-10048240D02*
X11941800Y-10048240D01*
X11840200Y-10251440D02*
X11941800Y-10353040D01*
X11941800Y-10251440D02*
X11840200Y-10353040D01*
X11891000Y-10251440D02*
X11891000Y-10353040D01*
X11840200Y-10302240D02*
X11941800Y-10302240D01*
X11840200Y-10505440D02*
X11941800Y-10607040D01*
X11941800Y-10505440D02*
X11840200Y-10607040D01*
X11891000Y-10505440D02*
X11891000Y-10607040D01*
X11840200Y-10556240D02*
X11941800Y-10556240D01*
X11840200Y-10759440D02*
X11941800Y-10861040D01*
X11941800Y-10759440D02*
X11840200Y-10861040D01*
X11891000Y-10759440D02*
X11891000Y-10861040D01*
X11840200Y-10810240D02*
X11941800Y-10810240D01*
X11840200Y-11013440D02*
X11941800Y-11115040D01*
X11941800Y-11013440D02*
X11840200Y-11115040D01*
X11891000Y-11013440D02*
X11891000Y-11115040D01*
X11840200Y-11064240D02*
X11941800Y-11064240D01*
X11840200Y-11267440D02*
X11941800Y-11369040D01*
X11941800Y-11267440D02*
X11840200Y-11369040D01*
X11891000Y-11267440D02*
X11891000Y-11369040D01*
X11840200Y-11318240D02*
X11941800Y-11318240D01*
X11840200Y-11521440D02*
X11941800Y-11623040D01*
X11941800Y-11521440D02*
X11840200Y-11623040D01*
X11891000Y-11521440D02*
X11891000Y-11623040D01*
X11840200Y-11572240D02*
X11941800Y-11572240D01*
X11840200Y-11775440D02*
X11941800Y-11877040D01*
X11941800Y-11775440D02*
X11840200Y-11877040D01*
X11891000Y-11775440D02*
X11891000Y-11877040D01*
X11840200Y-11826240D02*
X11941800Y-11826240D01*
X16412200Y-6187440D02*
X16513800Y-6289040D01*
X16513800Y-6187440D02*
X16412200Y-6289040D01*
X16463000Y-6187440D02*
X16463000Y-6289040D01*
X16412200Y-6238240D02*
X16513800Y-6238240D01*
X16412200Y-6441440D02*
X16513800Y-6543040D01*
X16513800Y-6441440D02*
X16412200Y-6543040D01*
X16463000Y-6441440D02*
X16463000Y-6543040D01*
X16412200Y-6492240D02*
X16513800Y-6492240D01*
X16412200Y-6695440D02*
X16513800Y-6797040D01*
X16513800Y-6695440D02*
X16412200Y-6797040D01*
X16463000Y-6695440D02*
X16463000Y-6797040D01*
X16412200Y-6746240D02*
X16513800Y-6746240D01*
X16412200Y-6949440D02*
X16513800Y-7051040D01*
X16513800Y-6949440D02*
X16412200Y-7051040D01*
X16463000Y-6949440D02*
X16463000Y-7051040D01*
X16412200Y-7000240D02*
X16513800Y-7000240D01*
X16412200Y-7203440D02*
X16513800Y-7305040D01*
X16513800Y-7203440D02*
X16412200Y-7305040D01*
X16463000Y-7203440D02*
X16463000Y-7305040D01*
X16412200Y-7254240D02*
X16513800Y-7254240D01*
X16412200Y-7457440D02*
X16513800Y-7559040D01*
X16513800Y-7457440D02*
X16412200Y-7559040D01*
X16463000Y-7457440D02*
X16463000Y-7559040D01*
X16412200Y-7508240D02*
X16513800Y-7508240D01*
X16412200Y-7711440D02*
X16513800Y-7813040D01*
X16513800Y-7711440D02*
X16412200Y-7813040D01*
X16463000Y-7711440D02*
X16463000Y-7813040D01*
X16412200Y-7762240D02*
X16513800Y-7762240D01*
X16412200Y-7965440D02*
X16513800Y-8067040D01*
X16513800Y-7965440D02*
X16412200Y-8067040D01*
X16463000Y-7965440D02*
X16463000Y-8067040D01*
X16412200Y-8016240D02*
X16513800Y-8016240D01*
X16412200Y-8219440D02*
X16513800Y-8321040D01*
X16513800Y-8219440D02*
X16412200Y-8321040D01*
X16463000Y-8219440D02*
X16463000Y-8321040D01*
X16412200Y-8270240D02*
X16513800Y-8270240D01*
X16412200Y-8473440D02*
X16513800Y-8575040D01*
X16513800Y-8473440D02*
X16412200Y-8575040D01*
X16463000Y-8473440D02*
X16463000Y-8575040D01*
X16412200Y-8524240D02*
X16513800Y-8524240D01*
X16412200Y-8727440D02*
X16513800Y-8829040D01*
X16513800Y-8727440D02*
X16412200Y-8829040D01*
X16463000Y-8727440D02*
X16463000Y-8829040D01*
X16412200Y-8778240D02*
X16513800Y-8778240D01*
X16412200Y-8981440D02*
X16513800Y-9083040D01*
X16513800Y-8981440D02*
X16412200Y-9083040D01*
X16463000Y-8981440D02*
X16463000Y-9083040D01*
X16412200Y-9032240D02*
X16513800Y-9032240D01*
X16412200Y-9235440D02*
X16513800Y-9337040D01*
X16513800Y-9235440D02*
X16412200Y-9337040D01*
X16463000Y-9235440D02*
X16463000Y-9337040D01*
X16412200Y-9286240D02*
X16513800Y-9286240D01*
X16412200Y-9489440D02*
X16513800Y-9591040D01*
X16513800Y-9489440D02*
X16412200Y-9591040D01*
X16463000Y-9489440D02*
X16463000Y-9591040D01*
X16412200Y-9540240D02*
X16513800Y-9540240D01*
X16412200Y-9743440D02*
X16513800Y-9845040D01*
X16513800Y-9743440D02*
X16412200Y-9845040D01*
X16463000Y-9743440D02*
X16463000Y-9845040D01*
X16412200Y-9794240D02*
X16513800Y-9794240D01*
X16412200Y-9997440D02*
X16513800Y-10099040D01*
X16513800Y-9997440D02*
X16412200Y-10099040D01*
X16463000Y-9997440D02*
X16463000Y-10099040D01*
X16412200Y-10048240D02*
X16513800Y-10048240D01*
X16412200Y-10251440D02*
X16513800Y-10353040D01*
X16513800Y-10251440D02*
X16412200Y-10353040D01*
X16463000Y-10251440D02*
X16463000Y-10353040D01*
X16412200Y-10302240D02*
X16513800Y-10302240D01*
X16412200Y-10505440D02*
X16513800Y-10607040D01*
X16513800Y-10505440D02*
X16412200Y-10607040D01*
X16463000Y-10505440D02*
X16463000Y-10607040D01*
X16412200Y-10556240D02*
X16513800Y-10556240D01*
X16412200Y-10759440D02*
X16513800Y-10861040D01*
X16513800Y-10759440D02*
X16412200Y-10861040D01*
X16463000Y-10759440D02*
X16463000Y-10861040D01*
X16412200Y-10810240D02*
X16513800Y-10810240D01*
X16412200Y-11013440D02*
X16513800Y-11115040D01*
X16513800Y-11013440D02*
X16412200Y-11115040D01*
X16463000Y-11013440D02*
X16463000Y-11115040D01*
X16412200Y-11064240D02*
X16513800Y-11064240D01*
X16412200Y-11267440D02*
X16513800Y-11369040D01*
X16513800Y-11267440D02*
X16412200Y-11369040D01*
X16463000Y-11267440D02*
X16463000Y-11369040D01*
X16412200Y-11318240D02*
X16513800Y-11318240D01*
X16412200Y-11521440D02*
X16513800Y-11623040D01*
X16513800Y-11521440D02*
X16412200Y-11623040D01*
X16463000Y-11521440D02*
X16463000Y-11623040D01*
X16412200Y-11572240D02*
X16513800Y-11572240D01*
X16412200Y-11775440D02*
X16513800Y-11877040D01*
X16513800Y-11775440D02*
X16412200Y-11877040D01*
X16463000Y-11775440D02*
X16463000Y-11877040D01*
X16412200Y-11826240D02*
X16513800Y-11826240D01*
X16666200Y-6187440D02*
X16767800Y-6289040D01*
X16767800Y-6187440D02*
X16666200Y-6289040D01*
X16717000Y-6187440D02*
X16717000Y-6289040D01*
X16666200Y-6238240D02*
X16767800Y-6238240D01*
X16666200Y-6441440D02*
X16767800Y-6543040D01*
X16767800Y-6441440D02*
X16666200Y-6543040D01*
X16717000Y-6441440D02*
X16717000Y-6543040D01*
X16666200Y-6492240D02*
X16767800Y-6492240D01*
X16666200Y-6695440D02*
X16767800Y-6797040D01*
X16767800Y-6695440D02*
X16666200Y-6797040D01*
X16717000Y-6695440D02*
X16717000Y-6797040D01*
X16666200Y-6746240D02*
X16767800Y-6746240D01*
X16666200Y-6949440D02*
X16767800Y-7051040D01*
X16767800Y-6949440D02*
X16666200Y-7051040D01*
X16717000Y-6949440D02*
X16717000Y-7051040D01*
X16666200Y-7000240D02*
X16767800Y-7000240D01*
X16666200Y-7203440D02*
X16767800Y-7305040D01*
X16767800Y-7203440D02*
X16666200Y-7305040D01*
X16717000Y-7203440D02*
X16717000Y-7305040D01*
X16666200Y-7254240D02*
X16767800Y-7254240D01*
X16666200Y-7457440D02*
X16767800Y-7559040D01*
X16767800Y-7457440D02*
X16666200Y-7559040D01*
X16717000Y-7457440D02*
X16717000Y-7559040D01*
X16666200Y-7508240D02*
X16767800Y-7508240D01*
X16666200Y-7711440D02*
X16767800Y-7813040D01*
X16767800Y-7711440D02*
X16666200Y-7813040D01*
X16717000Y-7711440D02*
X16717000Y-7813040D01*
X16666200Y-7762240D02*
X16767800Y-7762240D01*
X16666200Y-7965440D02*
X16767800Y-8067040D01*
X16767800Y-7965440D02*
X16666200Y-8067040D01*
X16717000Y-7965440D02*
X16717000Y-8067040D01*
X16666200Y-8016240D02*
X16767800Y-8016240D01*
X16666200Y-8219440D02*
X16767800Y-8321040D01*
X16767800Y-8219440D02*
X16666200Y-8321040D01*
X16717000Y-8219440D02*
X16717000Y-8321040D01*
X16666200Y-8270240D02*
X16767800Y-8270240D01*
X16666200Y-8473440D02*
X16767800Y-8575040D01*
X16767800Y-8473440D02*
X16666200Y-8575040D01*
X16717000Y-8473440D02*
X16717000Y-8575040D01*
X16666200Y-8524240D02*
X16767800Y-8524240D01*
X16666200Y-8727440D02*
X16767800Y-8829040D01*
X16767800Y-8727440D02*
X16666200Y-8829040D01*
X16717000Y-8727440D02*
X16717000Y-8829040D01*
X16666200Y-8778240D02*
X16767800Y-8778240D01*
X16666200Y-8981440D02*
X16767800Y-9083040D01*
X16767800Y-8981440D02*
X16666200Y-9083040D01*
X16717000Y-8981440D02*
X16717000Y-9083040D01*
X16666200Y-9032240D02*
X16767800Y-9032240D01*
X16666200Y-9235440D02*
X16767800Y-9337040D01*
X16767800Y-9235440D02*
X16666200Y-9337040D01*
X16717000Y-9235440D02*
X16717000Y-9337040D01*
X16666200Y-9286240D02*
X16767800Y-9286240D01*
X16666200Y-9489440D02*
X16767800Y-9591040D01*
X16767800Y-9489440D02*
X16666200Y-9591040D01*
X16717000Y-9489440D02*
X16717000Y-9591040D01*
X16666200Y-9540240D02*
X16767800Y-9540240D01*
X16666200Y-9743440D02*
X16767800Y-9845040D01*
X16767800Y-9743440D02*
X16666200Y-9845040D01*
X16717000Y-9743440D02*
X16717000Y-9845040D01*
X16666200Y-9794240D02*
X16767800Y-9794240D01*
X16666200Y-9997440D02*
X16767800Y-10099040D01*
X16767800Y-9997440D02*
X16666200Y-10099040D01*
X16717000Y-9997440D02*
X16717000Y-10099040D01*
X16666200Y-10048240D02*
X16767800Y-10048240D01*
X16666200Y-10251440D02*
X16767800Y-10353040D01*
X16767800Y-10251440D02*
X16666200Y-10353040D01*
X16717000Y-10251440D02*
X16717000Y-10353040D01*
X16666200Y-10302240D02*
X16767800Y-10302240D01*
X16666200Y-10505440D02*
X16767800Y-10607040D01*
X16767800Y-10505440D02*
X16666200Y-10607040D01*
X16717000Y-10505440D02*
X16717000Y-10607040D01*
X16666200Y-10556240D02*
X16767800Y-10556240D01*
X16666200Y-10759440D02*
X16767800Y-10861040D01*
X16767800Y-10759440D02*
X16666200Y-10861040D01*
X16717000Y-10759440D02*
X16717000Y-10861040D01*
X16666200Y-10810240D02*
X16767800Y-10810240D01*
X16666200Y-11013440D02*
X16767800Y-11115040D01*
X16767800Y-11013440D02*
X16666200Y-11115040D01*
X16717000Y-11013440D02*
X16717000Y-11115040D01*
X16666200Y-11064240D02*
X16767800Y-11064240D01*
X16666200Y-11267440D02*
X16767800Y-11369040D01*
X16767800Y-11267440D02*
X16666200Y-11369040D01*
X16717000Y-11267440D02*
X16717000Y-11369040D01*
X16666200Y-11318240D02*
X16767800Y-11318240D01*
X16666200Y-11521440D02*
X16767800Y-11623040D01*
X16767800Y-11521440D02*
X16666200Y-11623040D01*
X16717000Y-11521440D02*
X16717000Y-11623040D01*
X16666200Y-11572240D02*
X16767800Y-11572240D01*
X16666200Y-11775440D02*
X16767800Y-11877040D01*
X16767800Y-11775440D02*
X16666200Y-11877040D01*
X16717000Y-11775440D02*
X16717000Y-11877040D01*
X16666200Y-11826240D02*
X16767800Y-11826240D01*
D12*
X11732811Y-18388081D02*
X11732811Y-18088081D01*
X11804240Y-18088081D01*
X11847097Y-18102367D01*
X11875669Y-18130939D01*
X11889954Y-18159510D01*
X11904240Y-18216653D01*
X11904240Y-18259510D01*
X11889954Y-18316653D01*
X11875669Y-18345224D01*
X11847097Y-18373796D01*
X11804240Y-18388081D01*
X11732811Y-18388081D01*
X12032811Y-18388081D02*
X12032811Y-18188081D01*
X12032811Y-18245224D02*
X12047097Y-18216653D01*
X12061383Y-18202367D01*
X12089954Y-18188081D01*
X12118526Y-18188081D01*
X12218526Y-18388081D02*
X12218526Y-18188081D01*
X12218526Y-18088081D02*
X12204240Y-18102367D01*
X12218526Y-18116653D01*
X12232811Y-18102367D01*
X12218526Y-18088081D01*
X12218526Y-18116653D01*
X12404240Y-18388081D02*
X12375669Y-18373796D01*
X12361383Y-18345224D01*
X12361383Y-18088081D01*
X12561383Y-18388081D02*
X12532811Y-18373796D01*
X12518526Y-18345224D01*
X12518526Y-18088081D01*
X12904240Y-18388081D02*
X12904240Y-18088081D01*
X13004240Y-18302367D01*
X13104240Y-18088081D01*
X13104240Y-18388081D01*
X13375669Y-18388081D02*
X13375669Y-18230939D01*
X13361383Y-18202367D01*
X13332811Y-18188081D01*
X13275669Y-18188081D01*
X13247097Y-18202367D01*
X13375669Y-18373796D02*
X13347097Y-18388081D01*
X13275669Y-18388081D01*
X13247097Y-18373796D01*
X13232811Y-18345224D01*
X13232811Y-18316653D01*
X13247097Y-18288081D01*
X13275669Y-18273796D01*
X13347097Y-18273796D01*
X13375669Y-18259510D01*
X13518526Y-18188081D02*
X13518526Y-18488081D01*
X13518526Y-18202367D02*
X13547097Y-18188081D01*
X13604240Y-18188081D01*
X13632811Y-18202367D01*
X13647097Y-18216653D01*
X13661383Y-18245224D01*
X13661383Y-18330939D01*
X13647097Y-18359510D01*
X13632811Y-18373796D01*
X13604240Y-18388081D01*
X13547097Y-18388081D01*
X13518526Y-18373796D01*
X13789954Y-18359510D02*
X13804240Y-18373796D01*
X13789954Y-18388081D01*
X13775669Y-18373796D01*
X13789954Y-18359510D01*
X13789954Y-18388081D01*
X13789954Y-18202367D02*
X13804240Y-18216653D01*
X13789954Y-18230939D01*
X13775669Y-18216653D01*
X13789954Y-18202367D01*
X13789954Y-18230939D01*
X11420983Y-18869667D02*
X11446383Y-18895067D01*
X11446383Y-18869667D02*
X11420983Y-18895067D01*
X11789954Y-18718081D02*
X11818526Y-18718081D01*
X11847097Y-18732367D01*
X11861383Y-18746653D01*
X11875669Y-18775224D01*
X11889954Y-18832367D01*
X11889954Y-18903796D01*
X11875669Y-18960939D01*
X11861383Y-18989510D01*
X11847097Y-19003796D01*
X11818526Y-19018081D01*
X11789954Y-19018081D01*
X11761383Y-19003796D01*
X11747097Y-18989510D01*
X11732811Y-18960939D01*
X11718526Y-18903796D01*
X11718526Y-18832367D01*
X11732811Y-18775224D01*
X11747097Y-18746653D01*
X11761383Y-18732367D01*
X11789954Y-18718081D01*
X12018526Y-18989510D02*
X12032811Y-19003796D01*
X12018526Y-19018081D01*
X12004240Y-19003796D01*
X12018526Y-18989510D01*
X12018526Y-19018081D01*
X12147097Y-18746653D02*
X12161383Y-18732367D01*
X12189954Y-18718081D01*
X12261383Y-18718081D01*
X12289954Y-18732367D01*
X12304240Y-18746653D01*
X12318526Y-18775224D01*
X12318526Y-18803796D01*
X12304240Y-18846653D01*
X12132811Y-19018081D01*
X12318526Y-19018081D01*
X12589954Y-18718081D02*
X12447097Y-18718081D01*
X12432811Y-18860939D01*
X12447097Y-18846653D01*
X12475669Y-18832367D01*
X12547097Y-18832367D01*
X12575669Y-18846653D01*
X12589954Y-18860939D01*
X12604240Y-18889510D01*
X12604240Y-18960939D01*
X12589954Y-18989510D01*
X12575669Y-19003796D01*
X12547097Y-19018081D01*
X12475669Y-19018081D01*
X12447097Y-19003796D01*
X12432811Y-18989510D01*
X12732811Y-19018081D02*
X12732811Y-18818081D01*
X12732811Y-18846653D02*
X12747097Y-18832367D01*
X12775669Y-18818081D01*
X12818526Y-18818081D01*
X12847097Y-18832367D01*
X12861383Y-18860939D01*
X12861383Y-19018081D01*
X12861383Y-18860939D02*
X12875669Y-18832367D01*
X12904240Y-18818081D01*
X12947097Y-18818081D01*
X12975669Y-18832367D01*
X12989954Y-18860939D01*
X12989954Y-19018081D01*
X13132811Y-19018081D02*
X13132811Y-18818081D01*
X13132811Y-18846653D02*
X13147097Y-18832367D01*
X13175669Y-18818081D01*
X13218526Y-18818081D01*
X13247097Y-18832367D01*
X13261383Y-18860939D01*
X13261383Y-19018081D01*
X13261383Y-18860939D02*
X13275669Y-18832367D01*
X13304240Y-18818081D01*
X13347097Y-18818081D01*
X13375669Y-18832367D01*
X13389954Y-18860939D01*
X13389954Y-19018081D01*
X13975669Y-18703796D02*
X13718526Y-19089510D01*
X14361383Y-18718081D02*
X14389954Y-18718081D01*
X14418526Y-18732367D01*
X14432811Y-18746653D01*
X14447097Y-18775224D01*
X14461383Y-18832367D01*
X14461383Y-18903796D01*
X14447097Y-18960939D01*
X14432811Y-18989510D01*
X14418526Y-19003796D01*
X14389954Y-19018081D01*
X14361383Y-19018081D01*
X14332811Y-19003796D01*
X14318526Y-18989510D01*
X14304240Y-18960939D01*
X14289954Y-18903796D01*
X14289954Y-18832367D01*
X14304240Y-18775224D01*
X14318526Y-18746653D01*
X14332811Y-18732367D01*
X14361383Y-18718081D01*
X14589954Y-18989510D02*
X14604240Y-19003796D01*
X14589954Y-19018081D01*
X14575669Y-19003796D01*
X14589954Y-18989510D01*
X14589954Y-19018081D01*
X14789954Y-18718081D02*
X14818526Y-18718081D01*
X14847097Y-18732367D01*
X14861383Y-18746653D01*
X14875669Y-18775224D01*
X14889954Y-18832367D01*
X14889954Y-18903796D01*
X14875669Y-18960939D01*
X14861383Y-18989510D01*
X14847097Y-19003796D01*
X14818526Y-19018081D01*
X14789954Y-19018081D01*
X14761383Y-19003796D01*
X14747097Y-18989510D01*
X14732811Y-18960939D01*
X14718526Y-18903796D01*
X14718526Y-18832367D01*
X14732811Y-18775224D01*
X14747097Y-18746653D01*
X14761383Y-18732367D01*
X14789954Y-18718081D01*
X15175669Y-19018081D02*
X15004240Y-19018081D01*
X15089954Y-19018081D02*
X15089954Y-18718081D01*
X15061383Y-18760939D01*
X15032811Y-18789510D01*
X15004240Y-18803796D01*
X15361383Y-18718081D02*
X15389954Y-18718081D01*
X15418526Y-18732367D01*
X15432811Y-18746653D01*
X15447097Y-18775224D01*
X15461383Y-18832367D01*
X15461383Y-18903796D01*
X15447097Y-18960939D01*
X15432811Y-18989510D01*
X15418526Y-19003796D01*
X15389954Y-19018081D01*
X15361383Y-19018081D01*
X15332811Y-19003796D01*
X15318526Y-18989510D01*
X15304240Y-18960939D01*
X15289954Y-18903796D01*
X15289954Y-18832367D01*
X15304240Y-18775224D01*
X15318526Y-18746653D01*
X15332811Y-18732367D01*
X15361383Y-18718081D01*
X15575669Y-18718081D02*
X15575669Y-18775224D01*
X15689954Y-18718081D02*
X15689954Y-18775224D01*
X16132811Y-19132367D02*
X16118526Y-19118081D01*
X16089954Y-19075224D01*
X16075669Y-19046653D01*
X16061383Y-19003796D01*
X16047097Y-18932367D01*
X16047097Y-18875224D01*
X16061383Y-18803796D01*
X16075669Y-18760939D01*
X16089954Y-18732367D01*
X16118526Y-18689510D01*
X16132811Y-18675224D01*
X16218526Y-18718081D02*
X16404240Y-18718081D01*
X16304240Y-18832367D01*
X16347097Y-18832367D01*
X16375669Y-18846653D01*
X16389954Y-18860939D01*
X16404240Y-18889510D01*
X16404240Y-18960939D01*
X16389954Y-18989510D01*
X16375669Y-19003796D01*
X16347097Y-19018081D01*
X16261383Y-19018081D01*
X16232811Y-19003796D01*
X16218526Y-18989510D01*
X16761383Y-19018081D02*
X16761383Y-18718081D01*
X16889954Y-19018081D02*
X16889954Y-18860939D01*
X16875669Y-18832367D01*
X16847097Y-18818081D01*
X16804240Y-18818081D01*
X16775669Y-18832367D01*
X16761383Y-18846653D01*
X17075669Y-19018081D02*
X17047097Y-19003796D01*
X17032811Y-18989510D01*
X17018526Y-18960939D01*
X17018526Y-18875224D01*
X17032811Y-18846653D01*
X17047097Y-18832367D01*
X17075669Y-18818081D01*
X17118526Y-18818081D01*
X17147097Y-18832367D01*
X17161383Y-18846653D01*
X17175669Y-18875224D01*
X17175669Y-18960939D01*
X17161383Y-18989510D01*
X17147097Y-19003796D01*
X17118526Y-19018081D01*
X17075669Y-19018081D01*
X17347097Y-19018081D02*
X17318526Y-19003796D01*
X17304240Y-18975224D01*
X17304240Y-18718081D01*
X17575669Y-19003796D02*
X17547097Y-19018081D01*
X17489954Y-19018081D01*
X17461383Y-19003796D01*
X17447097Y-18975224D01*
X17447097Y-18860939D01*
X17461383Y-18832367D01*
X17489954Y-18818081D01*
X17547097Y-18818081D01*
X17575669Y-18832367D01*
X17589954Y-18860939D01*
X17589954Y-18889510D01*
X17447097Y-18918081D01*
X17704240Y-19003796D02*
X17732811Y-19018081D01*
X17789954Y-19018081D01*
X17818526Y-19003796D01*
X17832811Y-18975224D01*
X17832811Y-18960939D01*
X17818526Y-18932367D01*
X17789954Y-18918081D01*
X17747097Y-18918081D01*
X17718526Y-18903796D01*
X17704240Y-18875224D01*
X17704240Y-18860939D01*
X17718526Y-18832367D01*
X17747097Y-18818081D01*
X17789954Y-18818081D01*
X17818526Y-18832367D01*
X17932811Y-19132367D02*
X17947097Y-19118081D01*
X17975669Y-19075224D01*
X17989954Y-19046653D01*
X18004240Y-19003796D01*
X18018526Y-18932367D01*
X18018526Y-18875224D01*
X18004240Y-18803796D01*
X17989954Y-18760939D01*
X17975669Y-18732367D01*
X17947097Y-18689510D01*
X17932811Y-18675224D01*
X11446383Y-19278367D02*
G75*
G03X11446383Y-19278367I-30000J0D01*
G01*
X11789954Y-19114081D02*
X11818526Y-19114081D01*
X11847097Y-19128367D01*
X11861383Y-19142653D01*
X11875669Y-19171224D01*
X11889954Y-19228367D01*
X11889954Y-19299796D01*
X11875669Y-19356939D01*
X11861383Y-19385510D01*
X11847097Y-19399796D01*
X11818526Y-19414081D01*
X11789954Y-19414081D01*
X11761383Y-19399796D01*
X11747097Y-19385510D01*
X11732811Y-19356939D01*
X11718526Y-19299796D01*
X11718526Y-19228367D01*
X11732811Y-19171224D01*
X11747097Y-19142653D01*
X11761383Y-19128367D01*
X11789954Y-19114081D01*
X12018526Y-19385510D02*
X12032811Y-19399796D01*
X12018526Y-19414081D01*
X12004240Y-19399796D01*
X12018526Y-19385510D01*
X12018526Y-19414081D01*
X12289954Y-19114081D02*
X12232811Y-19114081D01*
X12204240Y-19128367D01*
X12189954Y-19142653D01*
X12161383Y-19185510D01*
X12147097Y-19242653D01*
X12147097Y-19356939D01*
X12161383Y-19385510D01*
X12175669Y-19399796D01*
X12204240Y-19414081D01*
X12261383Y-19414081D01*
X12289954Y-19399796D01*
X12304240Y-19385510D01*
X12318526Y-19356939D01*
X12318526Y-19285510D01*
X12304240Y-19256939D01*
X12289954Y-19242653D01*
X12261383Y-19228367D01*
X12204240Y-19228367D01*
X12175669Y-19242653D01*
X12161383Y-19256939D01*
X12147097Y-19285510D01*
X12504240Y-19114081D02*
X12532811Y-19114081D01*
X12561383Y-19128367D01*
X12575669Y-19142653D01*
X12589954Y-19171224D01*
X12604240Y-19228367D01*
X12604240Y-19299796D01*
X12589954Y-19356939D01*
X12575669Y-19385510D01*
X12561383Y-19399796D01*
X12532811Y-19414081D01*
X12504240Y-19414081D01*
X12475669Y-19399796D01*
X12461383Y-19385510D01*
X12447097Y-19356939D01*
X12432811Y-19299796D01*
X12432811Y-19228367D01*
X12447097Y-19171224D01*
X12461383Y-19142653D01*
X12475669Y-19128367D01*
X12504240Y-19114081D01*
X12732811Y-19414081D02*
X12732811Y-19214081D01*
X12732811Y-19242653D02*
X12747097Y-19228367D01*
X12775669Y-19214081D01*
X12818526Y-19214081D01*
X12847097Y-19228367D01*
X12861383Y-19256939D01*
X12861383Y-19414081D01*
X12861383Y-19256939D02*
X12875669Y-19228367D01*
X12904240Y-19214081D01*
X12947097Y-19214081D01*
X12975669Y-19228367D01*
X12989954Y-19256939D01*
X12989954Y-19414081D01*
X13132811Y-19414081D02*
X13132811Y-19214081D01*
X13132811Y-19242653D02*
X13147097Y-19228367D01*
X13175669Y-19214081D01*
X13218526Y-19214081D01*
X13247097Y-19228367D01*
X13261383Y-19256939D01*
X13261383Y-19414081D01*
X13261383Y-19256939D02*
X13275669Y-19228367D01*
X13304240Y-19214081D01*
X13347097Y-19214081D01*
X13375669Y-19228367D01*
X13389954Y-19256939D01*
X13389954Y-19414081D01*
X13975669Y-19099796D02*
X13718526Y-19485510D01*
X14361383Y-19114081D02*
X14389954Y-19114081D01*
X14418526Y-19128367D01*
X14432811Y-19142653D01*
X14447097Y-19171224D01*
X14461383Y-19228367D01*
X14461383Y-19299796D01*
X14447097Y-19356939D01*
X14432811Y-19385510D01*
X14418526Y-19399796D01*
X14389954Y-19414081D01*
X14361383Y-19414081D01*
X14332811Y-19399796D01*
X14318526Y-19385510D01*
X14304240Y-19356939D01*
X14289954Y-19299796D01*
X14289954Y-19228367D01*
X14304240Y-19171224D01*
X14318526Y-19142653D01*
X14332811Y-19128367D01*
X14361383Y-19114081D01*
X14589954Y-19385510D02*
X14604240Y-19399796D01*
X14589954Y-19414081D01*
X14575669Y-19399796D01*
X14589954Y-19385510D01*
X14589954Y-19414081D01*
X14789954Y-19114081D02*
X14818526Y-19114081D01*
X14847097Y-19128367D01*
X14861383Y-19142653D01*
X14875669Y-19171224D01*
X14889954Y-19228367D01*
X14889954Y-19299796D01*
X14875669Y-19356939D01*
X14861383Y-19385510D01*
X14847097Y-19399796D01*
X14818526Y-19414081D01*
X14789954Y-19414081D01*
X14761383Y-19399796D01*
X14747097Y-19385510D01*
X14732811Y-19356939D01*
X14718526Y-19299796D01*
X14718526Y-19228367D01*
X14732811Y-19171224D01*
X14747097Y-19142653D01*
X14761383Y-19128367D01*
X14789954Y-19114081D01*
X15004240Y-19142653D02*
X15018526Y-19128367D01*
X15047097Y-19114081D01*
X15118526Y-19114081D01*
X15147097Y-19128367D01*
X15161383Y-19142653D01*
X15175669Y-19171224D01*
X15175669Y-19199796D01*
X15161383Y-19242653D01*
X14989954Y-19414081D01*
X15175669Y-19414081D01*
X15432811Y-19214081D02*
X15432811Y-19414081D01*
X15361383Y-19099796D02*
X15289954Y-19314081D01*
X15475669Y-19314081D01*
X15575669Y-19114081D02*
X15575669Y-19171224D01*
X15689954Y-19114081D02*
X15689954Y-19171224D01*
X16132811Y-19528367D02*
X16118526Y-19514081D01*
X16089954Y-19471224D01*
X16075669Y-19442653D01*
X16061383Y-19399796D01*
X16047097Y-19328367D01*
X16047097Y-19271224D01*
X16061383Y-19199796D01*
X16075669Y-19156939D01*
X16089954Y-19128367D01*
X16118526Y-19085510D01*
X16132811Y-19071224D01*
X16375669Y-19214081D02*
X16375669Y-19414081D01*
X16304240Y-19099796D02*
X16232811Y-19314081D01*
X16418526Y-19314081D01*
X16761383Y-19414081D02*
X16761383Y-19114081D01*
X16889954Y-19414081D02*
X16889954Y-19256939D01*
X16875669Y-19228367D01*
X16847097Y-19214081D01*
X16804240Y-19214081D01*
X16775669Y-19228367D01*
X16761383Y-19242653D01*
X17075669Y-19414081D02*
X17047097Y-19399796D01*
X17032811Y-19385510D01*
X17018526Y-19356939D01*
X17018526Y-19271224D01*
X17032811Y-19242653D01*
X17047097Y-19228367D01*
X17075669Y-19214081D01*
X17118526Y-19214081D01*
X17147097Y-19228367D01*
X17161383Y-19242653D01*
X17175669Y-19271224D01*
X17175669Y-19356939D01*
X17161383Y-19385510D01*
X17147097Y-19399796D01*
X17118526Y-19414081D01*
X17075669Y-19414081D01*
X17347097Y-19414081D02*
X17318526Y-19399796D01*
X17304240Y-19371224D01*
X17304240Y-19114081D01*
X17575669Y-19399796D02*
X17547097Y-19414081D01*
X17489954Y-19414081D01*
X17461383Y-19399796D01*
X17447097Y-19371224D01*
X17447097Y-19256939D01*
X17461383Y-19228367D01*
X17489954Y-19214081D01*
X17547097Y-19214081D01*
X17575669Y-19228367D01*
X17589954Y-19256939D01*
X17589954Y-19285510D01*
X17447097Y-19314081D01*
X17704240Y-19399796D02*
X17732811Y-19414081D01*
X17789954Y-19414081D01*
X17818526Y-19399796D01*
X17832811Y-19371224D01*
X17832811Y-19356939D01*
X17818526Y-19328367D01*
X17789954Y-19314081D01*
X17747097Y-19314081D01*
X17718526Y-19299796D01*
X17704240Y-19271224D01*
X17704240Y-19256939D01*
X17718526Y-19228367D01*
X17747097Y-19214081D01*
X17789954Y-19214081D01*
X17818526Y-19228367D01*
X17932811Y-19528367D02*
X17947097Y-19514081D01*
X17975669Y-19471224D01*
X17989954Y-19442653D01*
X18004240Y-19399796D01*
X18018526Y-19328367D01*
X18018526Y-19271224D01*
X18004240Y-19199796D01*
X17989954Y-19156939D01*
X17975669Y-19128367D01*
X17947097Y-19085510D01*
X17932811Y-19071224D01*
X11411383Y-19639367D02*
X11411383Y-19709367D01*
X11376383Y-19674367D02*
X11446383Y-19674367D01*
X11789954Y-19510081D02*
X11818526Y-19510081D01*
X11847097Y-19524367D01*
X11861383Y-19538653D01*
X11875669Y-19567224D01*
X11889954Y-19624367D01*
X11889954Y-19695796D01*
X11875669Y-19752939D01*
X11861383Y-19781510D01*
X11847097Y-19795796D01*
X11818526Y-19810081D01*
X11789954Y-19810081D01*
X11761383Y-19795796D01*
X11747097Y-19781510D01*
X11732811Y-19752939D01*
X11718526Y-19695796D01*
X11718526Y-19624367D01*
X11732811Y-19567224D01*
X11747097Y-19538653D01*
X11761383Y-19524367D01*
X11789954Y-19510081D01*
X12018526Y-19781510D02*
X12032811Y-19795796D01*
X12018526Y-19810081D01*
X12004240Y-19795796D01*
X12018526Y-19781510D01*
X12018526Y-19810081D01*
X12132811Y-19510081D02*
X12332811Y-19510081D01*
X12204240Y-19810081D01*
X12504240Y-19510081D02*
X12532811Y-19510081D01*
X12561383Y-19524367D01*
X12575669Y-19538653D01*
X12589954Y-19567224D01*
X12604240Y-19624367D01*
X12604240Y-19695796D01*
X12589954Y-19752939D01*
X12575669Y-19781510D01*
X12561383Y-19795796D01*
X12532811Y-19810081D01*
X12504240Y-19810081D01*
X12475669Y-19795796D01*
X12461383Y-19781510D01*
X12447097Y-19752939D01*
X12432811Y-19695796D01*
X12432811Y-19624367D01*
X12447097Y-19567224D01*
X12461383Y-19538653D01*
X12475669Y-19524367D01*
X12504240Y-19510081D01*
X12732811Y-19810081D02*
X12732811Y-19610081D01*
X12732811Y-19638653D02*
X12747097Y-19624367D01*
X12775669Y-19610081D01*
X12818526Y-19610081D01*
X12847097Y-19624367D01*
X12861383Y-19652939D01*
X12861383Y-19810081D01*
X12861383Y-19652939D02*
X12875669Y-19624367D01*
X12904240Y-19610081D01*
X12947097Y-19610081D01*
X12975669Y-19624367D01*
X12989954Y-19652939D01*
X12989954Y-19810081D01*
X13132811Y-19810081D02*
X13132811Y-19610081D01*
X13132811Y-19638653D02*
X13147097Y-19624367D01*
X13175669Y-19610081D01*
X13218526Y-19610081D01*
X13247097Y-19624367D01*
X13261383Y-19652939D01*
X13261383Y-19810081D01*
X13261383Y-19652939D02*
X13275669Y-19624367D01*
X13304240Y-19610081D01*
X13347097Y-19610081D01*
X13375669Y-19624367D01*
X13389954Y-19652939D01*
X13389954Y-19810081D01*
X13975669Y-19495796D02*
X13718526Y-19881510D01*
X14361383Y-19510081D02*
X14389954Y-19510081D01*
X14418526Y-19524367D01*
X14432811Y-19538653D01*
X14447097Y-19567224D01*
X14461383Y-19624367D01*
X14461383Y-19695796D01*
X14447097Y-19752939D01*
X14432811Y-19781510D01*
X14418526Y-19795796D01*
X14389954Y-19810081D01*
X14361383Y-19810081D01*
X14332811Y-19795796D01*
X14318526Y-19781510D01*
X14304240Y-19752939D01*
X14289954Y-19695796D01*
X14289954Y-19624367D01*
X14304240Y-19567224D01*
X14318526Y-19538653D01*
X14332811Y-19524367D01*
X14361383Y-19510081D01*
X14589954Y-19781510D02*
X14604240Y-19795796D01*
X14589954Y-19810081D01*
X14575669Y-19795796D01*
X14589954Y-19781510D01*
X14589954Y-19810081D01*
X14789954Y-19510081D02*
X14818526Y-19510081D01*
X14847097Y-19524367D01*
X14861383Y-19538653D01*
X14875669Y-19567224D01*
X14889954Y-19624367D01*
X14889954Y-19695796D01*
X14875669Y-19752939D01*
X14861383Y-19781510D01*
X14847097Y-19795796D01*
X14818526Y-19810081D01*
X14789954Y-19810081D01*
X14761383Y-19795796D01*
X14747097Y-19781510D01*
X14732811Y-19752939D01*
X14718526Y-19695796D01*
X14718526Y-19624367D01*
X14732811Y-19567224D01*
X14747097Y-19538653D01*
X14761383Y-19524367D01*
X14789954Y-19510081D01*
X15004240Y-19538653D02*
X15018526Y-19524367D01*
X15047097Y-19510081D01*
X15118526Y-19510081D01*
X15147097Y-19524367D01*
X15161383Y-19538653D01*
X15175669Y-19567224D01*
X15175669Y-19595796D01*
X15161383Y-19638653D01*
X14989954Y-19810081D01*
X15175669Y-19810081D01*
X15347097Y-19638653D02*
X15318526Y-19624367D01*
X15304240Y-19610081D01*
X15289954Y-19581510D01*
X15289954Y-19567224D01*
X15304240Y-19538653D01*
X15318526Y-19524367D01*
X15347097Y-19510081D01*
X15404240Y-19510081D01*
X15432811Y-19524367D01*
X15447097Y-19538653D01*
X15461383Y-19567224D01*
X15461383Y-19581510D01*
X15447097Y-19610081D01*
X15432811Y-19624367D01*
X15404240Y-19638653D01*
X15347097Y-19638653D01*
X15318526Y-19652939D01*
X15304240Y-19667224D01*
X15289954Y-19695796D01*
X15289954Y-19752939D01*
X15304240Y-19781510D01*
X15318526Y-19795796D01*
X15347097Y-19810081D01*
X15404240Y-19810081D01*
X15432811Y-19795796D01*
X15447097Y-19781510D01*
X15461383Y-19752939D01*
X15461383Y-19695796D01*
X15447097Y-19667224D01*
X15432811Y-19652939D01*
X15404240Y-19638653D01*
X15575669Y-19510081D02*
X15575669Y-19567224D01*
X15689954Y-19510081D02*
X15689954Y-19567224D01*
X16132811Y-19924367D02*
X16118526Y-19910081D01*
X16089954Y-19867224D01*
X16075669Y-19838653D01*
X16061383Y-19795796D01*
X16047097Y-19724367D01*
X16047097Y-19667224D01*
X16061383Y-19595796D01*
X16075669Y-19552939D01*
X16089954Y-19524367D01*
X16118526Y-19481510D01*
X16132811Y-19467224D01*
X16289954Y-19638653D02*
X16261383Y-19624367D01*
X16247097Y-19610081D01*
X16232811Y-19581510D01*
X16232811Y-19567224D01*
X16247097Y-19538653D01*
X16261383Y-19524367D01*
X16289954Y-19510081D01*
X16347097Y-19510081D01*
X16375669Y-19524367D01*
X16389954Y-19538653D01*
X16404240Y-19567224D01*
X16404240Y-19581510D01*
X16389954Y-19610081D01*
X16375669Y-19624367D01*
X16347097Y-19638653D01*
X16289954Y-19638653D01*
X16261383Y-19652939D01*
X16247097Y-19667224D01*
X16232811Y-19695796D01*
X16232811Y-19752939D01*
X16247097Y-19781510D01*
X16261383Y-19795796D01*
X16289954Y-19810081D01*
X16347097Y-19810081D01*
X16375669Y-19795796D01*
X16389954Y-19781510D01*
X16404240Y-19752939D01*
X16404240Y-19695796D01*
X16389954Y-19667224D01*
X16375669Y-19652939D01*
X16347097Y-19638653D01*
X16761383Y-19810081D02*
X16761383Y-19510081D01*
X16889954Y-19810081D02*
X16889954Y-19652939D01*
X16875669Y-19624367D01*
X16847097Y-19610081D01*
X16804240Y-19610081D01*
X16775669Y-19624367D01*
X16761383Y-19638653D01*
X17075669Y-19810081D02*
X17047097Y-19795796D01*
X17032811Y-19781510D01*
X17018526Y-19752939D01*
X17018526Y-19667224D01*
X17032811Y-19638653D01*
X17047097Y-19624367D01*
X17075669Y-19610081D01*
X17118526Y-19610081D01*
X17147097Y-19624367D01*
X17161383Y-19638653D01*
X17175669Y-19667224D01*
X17175669Y-19752939D01*
X17161383Y-19781510D01*
X17147097Y-19795796D01*
X17118526Y-19810081D01*
X17075669Y-19810081D01*
X17347097Y-19810081D02*
X17318526Y-19795796D01*
X17304240Y-19767224D01*
X17304240Y-19510081D01*
X17575669Y-19795796D02*
X17547097Y-19810081D01*
X17489954Y-19810081D01*
X17461383Y-19795796D01*
X17447097Y-19767224D01*
X17447097Y-19652939D01*
X17461383Y-19624367D01*
X17489954Y-19610081D01*
X17547097Y-19610081D01*
X17575669Y-19624367D01*
X17589954Y-19652939D01*
X17589954Y-19681510D01*
X17447097Y-19710081D01*
X17704240Y-19795796D02*
X17732811Y-19810081D01*
X17789954Y-19810081D01*
X17818526Y-19795796D01*
X17832811Y-19767224D01*
X17832811Y-19752939D01*
X17818526Y-19724367D01*
X17789954Y-19710081D01*
X17747097Y-19710081D01*
X17718526Y-19695796D01*
X17704240Y-19667224D01*
X17704240Y-19652939D01*
X17718526Y-19624367D01*
X17747097Y-19610081D01*
X17789954Y-19610081D01*
X17818526Y-19624367D01*
X17932811Y-19924367D02*
X17947097Y-19910081D01*
X17975669Y-19867224D01*
X17989954Y-19838653D01*
X18004240Y-19795796D01*
X18018526Y-19724367D01*
X18018526Y-19667224D01*
X18004240Y-19595796D01*
X17989954Y-19552939D01*
X17975669Y-19524367D01*
X17947097Y-19481510D01*
X17932811Y-19467224D01*
X11435224Y-20097308D02*
X11435224Y-20043426D01*
X11381342Y-20043426D01*
X11381342Y-20097308D01*
X11435224Y-20097308D01*
X11789954Y-19906081D02*
X11818526Y-19906081D01*
X11847097Y-19920367D01*
X11861383Y-19934653D01*
X11875669Y-19963224D01*
X11889954Y-20020367D01*
X11889954Y-20091796D01*
X11875669Y-20148939D01*
X11861383Y-20177510D01*
X11847097Y-20191796D01*
X11818526Y-20206081D01*
X11789954Y-20206081D01*
X11761383Y-20191796D01*
X11747097Y-20177510D01*
X11732811Y-20148939D01*
X11718526Y-20091796D01*
X11718526Y-20020367D01*
X11732811Y-19963224D01*
X11747097Y-19934653D01*
X11761383Y-19920367D01*
X11789954Y-19906081D01*
X12018526Y-20177510D02*
X12032811Y-20191796D01*
X12018526Y-20206081D01*
X12004240Y-20191796D01*
X12018526Y-20177510D01*
X12018526Y-20206081D01*
X12132811Y-19906081D02*
X12332811Y-19906081D01*
X12204240Y-20206081D01*
X12575669Y-19906081D02*
X12518526Y-19906081D01*
X12489954Y-19920367D01*
X12475669Y-19934653D01*
X12447097Y-19977510D01*
X12432811Y-20034653D01*
X12432811Y-20148939D01*
X12447097Y-20177510D01*
X12461383Y-20191796D01*
X12489954Y-20206081D01*
X12547097Y-20206081D01*
X12575669Y-20191796D01*
X12589954Y-20177510D01*
X12604240Y-20148939D01*
X12604240Y-20077510D01*
X12589954Y-20048939D01*
X12575669Y-20034653D01*
X12547097Y-20020367D01*
X12489954Y-20020367D01*
X12461383Y-20034653D01*
X12447097Y-20048939D01*
X12432811Y-20077510D01*
X12732811Y-20206081D02*
X12732811Y-20006081D01*
X12732811Y-20034653D02*
X12747097Y-20020367D01*
X12775669Y-20006081D01*
X12818526Y-20006081D01*
X12847097Y-20020367D01*
X12861383Y-20048939D01*
X12861383Y-20206081D01*
X12861383Y-20048939D02*
X12875669Y-20020367D01*
X12904240Y-20006081D01*
X12947097Y-20006081D01*
X12975669Y-20020367D01*
X12989954Y-20048939D01*
X12989954Y-20206081D01*
X13132811Y-20206081D02*
X13132811Y-20006081D01*
X13132811Y-20034653D02*
X13147097Y-20020367D01*
X13175669Y-20006081D01*
X13218526Y-20006081D01*
X13247097Y-20020367D01*
X13261383Y-20048939D01*
X13261383Y-20206081D01*
X13261383Y-20048939D02*
X13275669Y-20020367D01*
X13304240Y-20006081D01*
X13347097Y-20006081D01*
X13375669Y-20020367D01*
X13389954Y-20048939D01*
X13389954Y-20206081D01*
X13975669Y-19891796D02*
X13718526Y-20277510D01*
X14361383Y-19906081D02*
X14389954Y-19906081D01*
X14418526Y-19920367D01*
X14432811Y-19934653D01*
X14447097Y-19963224D01*
X14461383Y-20020367D01*
X14461383Y-20091796D01*
X14447097Y-20148939D01*
X14432811Y-20177510D01*
X14418526Y-20191796D01*
X14389954Y-20206081D01*
X14361383Y-20206081D01*
X14332811Y-20191796D01*
X14318526Y-20177510D01*
X14304240Y-20148939D01*
X14289954Y-20091796D01*
X14289954Y-20020367D01*
X14304240Y-19963224D01*
X14318526Y-19934653D01*
X14332811Y-19920367D01*
X14361383Y-19906081D01*
X14589954Y-20177510D02*
X14604240Y-20191796D01*
X14589954Y-20206081D01*
X14575669Y-20191796D01*
X14589954Y-20177510D01*
X14589954Y-20206081D01*
X14789954Y-19906081D02*
X14818526Y-19906081D01*
X14847097Y-19920367D01*
X14861383Y-19934653D01*
X14875669Y-19963224D01*
X14889954Y-20020367D01*
X14889954Y-20091796D01*
X14875669Y-20148939D01*
X14861383Y-20177510D01*
X14847097Y-20191796D01*
X14818526Y-20206081D01*
X14789954Y-20206081D01*
X14761383Y-20191796D01*
X14747097Y-20177510D01*
X14732811Y-20148939D01*
X14718526Y-20091796D01*
X14718526Y-20020367D01*
X14732811Y-19963224D01*
X14747097Y-19934653D01*
X14761383Y-19920367D01*
X14789954Y-19906081D01*
X14989954Y-19906081D02*
X15175669Y-19906081D01*
X15075669Y-20020367D01*
X15118526Y-20020367D01*
X15147097Y-20034653D01*
X15161383Y-20048939D01*
X15175669Y-20077510D01*
X15175669Y-20148939D01*
X15161383Y-20177510D01*
X15147097Y-20191796D01*
X15118526Y-20206081D01*
X15032811Y-20206081D01*
X15004240Y-20191796D01*
X14989954Y-20177510D01*
X15361383Y-19906081D02*
X15389954Y-19906081D01*
X15418526Y-19920367D01*
X15432811Y-19934653D01*
X15447097Y-19963224D01*
X15461383Y-20020367D01*
X15461383Y-20091796D01*
X15447097Y-20148939D01*
X15432811Y-20177510D01*
X15418526Y-20191796D01*
X15389954Y-20206081D01*
X15361383Y-20206081D01*
X15332811Y-20191796D01*
X15318526Y-20177510D01*
X15304240Y-20148939D01*
X15289954Y-20091796D01*
X15289954Y-20020367D01*
X15304240Y-19963224D01*
X15318526Y-19934653D01*
X15332811Y-19920367D01*
X15361383Y-19906081D01*
X15575669Y-19906081D02*
X15575669Y-19963224D01*
X15689954Y-19906081D02*
X15689954Y-19963224D01*
X16132811Y-20320367D02*
X16118526Y-20306081D01*
X16089954Y-20263224D01*
X16075669Y-20234653D01*
X16061383Y-20191796D01*
X16047097Y-20120367D01*
X16047097Y-20063224D01*
X16061383Y-19991796D01*
X16075669Y-19948939D01*
X16089954Y-19920367D01*
X16118526Y-19877510D01*
X16132811Y-19863224D01*
X16232811Y-19934653D02*
X16247097Y-19920367D01*
X16275669Y-19906081D01*
X16347097Y-19906081D01*
X16375669Y-19920367D01*
X16389954Y-19934653D01*
X16404240Y-19963224D01*
X16404240Y-19991796D01*
X16389954Y-20034653D01*
X16218526Y-20206081D01*
X16404240Y-20206081D01*
X16575669Y-20034653D02*
X16547097Y-20020367D01*
X16532811Y-20006081D01*
X16518526Y-19977510D01*
X16518526Y-19963224D01*
X16532811Y-19934653D01*
X16547097Y-19920367D01*
X16575669Y-19906081D01*
X16632811Y-19906081D01*
X16661383Y-19920367D01*
X16675669Y-19934653D01*
X16689954Y-19963224D01*
X16689954Y-19977510D01*
X16675669Y-20006081D01*
X16661383Y-20020367D01*
X16632811Y-20034653D01*
X16575669Y-20034653D01*
X16547097Y-20048939D01*
X16532811Y-20063224D01*
X16518526Y-20091796D01*
X16518526Y-20148939D01*
X16532811Y-20177510D01*
X16547097Y-20191796D01*
X16575669Y-20206081D01*
X16632811Y-20206081D01*
X16661383Y-20191796D01*
X16675669Y-20177510D01*
X16689954Y-20148939D01*
X16689954Y-20091796D01*
X16675669Y-20063224D01*
X16661383Y-20048939D01*
X16632811Y-20034653D01*
X17047097Y-20206081D02*
X17047097Y-19906081D01*
X17175669Y-20206081D02*
X17175669Y-20048939D01*
X17161383Y-20020367D01*
X17132811Y-20006081D01*
X17089954Y-20006081D01*
X17061383Y-20020367D01*
X17047097Y-20034653D01*
X17361383Y-20206081D02*
X17332811Y-20191796D01*
X17318526Y-20177510D01*
X17304240Y-20148939D01*
X17304240Y-20063224D01*
X17318526Y-20034653D01*
X17332811Y-20020367D01*
X17361383Y-20006081D01*
X17404240Y-20006081D01*
X17432811Y-20020367D01*
X17447097Y-20034653D01*
X17461383Y-20063224D01*
X17461383Y-20148939D01*
X17447097Y-20177510D01*
X17432811Y-20191796D01*
X17404240Y-20206081D01*
X17361383Y-20206081D01*
X17632811Y-20206081D02*
X17604240Y-20191796D01*
X17589954Y-20163224D01*
X17589954Y-19906081D01*
X17861383Y-20191796D02*
X17832811Y-20206081D01*
X17775669Y-20206081D01*
X17747097Y-20191796D01*
X17732811Y-20163224D01*
X17732811Y-20048939D01*
X17747097Y-20020367D01*
X17775669Y-20006081D01*
X17832811Y-20006081D01*
X17861383Y-20020367D01*
X17875669Y-20048939D01*
X17875669Y-20077510D01*
X17732811Y-20106081D01*
X17989954Y-20191796D02*
X18018526Y-20206081D01*
X18075669Y-20206081D01*
X18104240Y-20191796D01*
X18118526Y-20163224D01*
X18118526Y-20148939D01*
X18104240Y-20120367D01*
X18075669Y-20106081D01*
X18032811Y-20106081D01*
X18004240Y-20091796D01*
X17989954Y-20063224D01*
X17989954Y-20048939D01*
X18004240Y-20020367D01*
X18032811Y-20006081D01*
X18075669Y-20006081D01*
X18104240Y-20020367D01*
X18218526Y-20320367D02*
X18232811Y-20306081D01*
X18261383Y-20263224D01*
X18275669Y-20234653D01*
X18289954Y-20191796D01*
X18304240Y-20120367D01*
X18304240Y-20063224D01*
X18289954Y-19991796D01*
X18275669Y-19948939D01*
X18261383Y-19920367D01*
X18232811Y-19877510D01*
X18218526Y-19863224D01*
X11406383Y-20506367D02*
X11446383Y-20466367D01*
X11406383Y-20426367D01*
X11366383Y-20466367D01*
X11406383Y-20506367D01*
X11789954Y-20302081D02*
X11818526Y-20302081D01*
X11847097Y-20316367D01*
X11861383Y-20330653D01*
X11875669Y-20359224D01*
X11889954Y-20416367D01*
X11889954Y-20487796D01*
X11875669Y-20544939D01*
X11861383Y-20573510D01*
X11847097Y-20587796D01*
X11818526Y-20602081D01*
X11789954Y-20602081D01*
X11761383Y-20587796D01*
X11747097Y-20573510D01*
X11732811Y-20544939D01*
X11718526Y-20487796D01*
X11718526Y-20416367D01*
X11732811Y-20359224D01*
X11747097Y-20330653D01*
X11761383Y-20316367D01*
X11789954Y-20302081D01*
X12018526Y-20573510D02*
X12032811Y-20587796D01*
X12018526Y-20602081D01*
X12004240Y-20587796D01*
X12018526Y-20573510D01*
X12018526Y-20602081D01*
X12204240Y-20430653D02*
X12175669Y-20416367D01*
X12161383Y-20402081D01*
X12147097Y-20373510D01*
X12147097Y-20359224D01*
X12161383Y-20330653D01*
X12175669Y-20316367D01*
X12204240Y-20302081D01*
X12261383Y-20302081D01*
X12289954Y-20316367D01*
X12304240Y-20330653D01*
X12318526Y-20359224D01*
X12318526Y-20373510D01*
X12304240Y-20402081D01*
X12289954Y-20416367D01*
X12261383Y-20430653D01*
X12204240Y-20430653D01*
X12175669Y-20444939D01*
X12161383Y-20459224D01*
X12147097Y-20487796D01*
X12147097Y-20544939D01*
X12161383Y-20573510D01*
X12175669Y-20587796D01*
X12204240Y-20602081D01*
X12261383Y-20602081D01*
X12289954Y-20587796D01*
X12304240Y-20573510D01*
X12318526Y-20544939D01*
X12318526Y-20487796D01*
X12304240Y-20459224D01*
X12289954Y-20444939D01*
X12261383Y-20430653D01*
X12504240Y-20302081D02*
X12532811Y-20302081D01*
X12561383Y-20316367D01*
X12575669Y-20330653D01*
X12589954Y-20359224D01*
X12604240Y-20416367D01*
X12604240Y-20487796D01*
X12589954Y-20544939D01*
X12575669Y-20573510D01*
X12561383Y-20587796D01*
X12532811Y-20602081D01*
X12504240Y-20602081D01*
X12475669Y-20587796D01*
X12461383Y-20573510D01*
X12447097Y-20544939D01*
X12432811Y-20487796D01*
X12432811Y-20416367D01*
X12447097Y-20359224D01*
X12461383Y-20330653D01*
X12475669Y-20316367D01*
X12504240Y-20302081D01*
X12732811Y-20602081D02*
X12732811Y-20402081D01*
X12732811Y-20430653D02*
X12747097Y-20416367D01*
X12775669Y-20402081D01*
X12818526Y-20402081D01*
X12847097Y-20416367D01*
X12861383Y-20444939D01*
X12861383Y-20602081D01*
X12861383Y-20444939D02*
X12875669Y-20416367D01*
X12904240Y-20402081D01*
X12947097Y-20402081D01*
X12975669Y-20416367D01*
X12989954Y-20444939D01*
X12989954Y-20602081D01*
X13132811Y-20602081D02*
X13132811Y-20402081D01*
X13132811Y-20430653D02*
X13147097Y-20416367D01*
X13175669Y-20402081D01*
X13218526Y-20402081D01*
X13247097Y-20416367D01*
X13261383Y-20444939D01*
X13261383Y-20602081D01*
X13261383Y-20444939D02*
X13275669Y-20416367D01*
X13304240Y-20402081D01*
X13347097Y-20402081D01*
X13375669Y-20416367D01*
X13389954Y-20444939D01*
X13389954Y-20602081D01*
X13975669Y-20287796D02*
X13718526Y-20673510D01*
X14361383Y-20302081D02*
X14389954Y-20302081D01*
X14418526Y-20316367D01*
X14432811Y-20330653D01*
X14447097Y-20359224D01*
X14461383Y-20416367D01*
X14461383Y-20487796D01*
X14447097Y-20544939D01*
X14432811Y-20573510D01*
X14418526Y-20587796D01*
X14389954Y-20602081D01*
X14361383Y-20602081D01*
X14332811Y-20587796D01*
X14318526Y-20573510D01*
X14304240Y-20544939D01*
X14289954Y-20487796D01*
X14289954Y-20416367D01*
X14304240Y-20359224D01*
X14318526Y-20330653D01*
X14332811Y-20316367D01*
X14361383Y-20302081D01*
X14589954Y-20573510D02*
X14604240Y-20587796D01*
X14589954Y-20602081D01*
X14575669Y-20587796D01*
X14589954Y-20573510D01*
X14589954Y-20602081D01*
X14789954Y-20302081D02*
X14818526Y-20302081D01*
X14847097Y-20316367D01*
X14861383Y-20330653D01*
X14875669Y-20359224D01*
X14889954Y-20416367D01*
X14889954Y-20487796D01*
X14875669Y-20544939D01*
X14861383Y-20573510D01*
X14847097Y-20587796D01*
X14818526Y-20602081D01*
X14789954Y-20602081D01*
X14761383Y-20587796D01*
X14747097Y-20573510D01*
X14732811Y-20544939D01*
X14718526Y-20487796D01*
X14718526Y-20416367D01*
X14732811Y-20359224D01*
X14747097Y-20330653D01*
X14761383Y-20316367D01*
X14789954Y-20302081D01*
X14989954Y-20302081D02*
X15175669Y-20302081D01*
X15075669Y-20416367D01*
X15118526Y-20416367D01*
X15147097Y-20430653D01*
X15161383Y-20444939D01*
X15175669Y-20473510D01*
X15175669Y-20544939D01*
X15161383Y-20573510D01*
X15147097Y-20587796D01*
X15118526Y-20602081D01*
X15032811Y-20602081D01*
X15004240Y-20587796D01*
X14989954Y-20573510D01*
X15461383Y-20602081D02*
X15289954Y-20602081D01*
X15375669Y-20602081D02*
X15375669Y-20302081D01*
X15347097Y-20344939D01*
X15318526Y-20373510D01*
X15289954Y-20387796D01*
X15575669Y-20302081D02*
X15575669Y-20359224D01*
X15689954Y-20302081D02*
X15689954Y-20359224D01*
X16132811Y-20716367D02*
X16118526Y-20702081D01*
X16089954Y-20659224D01*
X16075669Y-20630653D01*
X16061383Y-20587796D01*
X16047097Y-20516367D01*
X16047097Y-20459224D01*
X16061383Y-20387796D01*
X16075669Y-20344939D01*
X16089954Y-20316367D01*
X16118526Y-20273510D01*
X16132811Y-20259224D01*
X16404240Y-20602081D02*
X16232811Y-20602081D01*
X16318526Y-20602081D02*
X16318526Y-20302081D01*
X16289954Y-20344939D01*
X16261383Y-20373510D01*
X16232811Y-20387796D01*
X16675669Y-20302081D02*
X16532811Y-20302081D01*
X16518526Y-20444939D01*
X16532811Y-20430653D01*
X16561383Y-20416367D01*
X16632811Y-20416367D01*
X16661383Y-20430653D01*
X16675669Y-20444939D01*
X16689954Y-20473510D01*
X16689954Y-20544939D01*
X16675669Y-20573510D01*
X16661383Y-20587796D01*
X16632811Y-20602081D01*
X16561383Y-20602081D01*
X16532811Y-20587796D01*
X16518526Y-20573510D01*
X16875669Y-20302081D02*
X16904240Y-20302081D01*
X16932811Y-20316367D01*
X16947097Y-20330653D01*
X16961383Y-20359224D01*
X16975669Y-20416367D01*
X16975669Y-20487796D01*
X16961383Y-20544939D01*
X16947097Y-20573510D01*
X16932811Y-20587796D01*
X16904240Y-20602081D01*
X16875669Y-20602081D01*
X16847097Y-20587796D01*
X16832811Y-20573510D01*
X16818526Y-20544939D01*
X16804240Y-20487796D01*
X16804240Y-20416367D01*
X16818526Y-20359224D01*
X16832811Y-20330653D01*
X16847097Y-20316367D01*
X16875669Y-20302081D01*
X17332811Y-20602081D02*
X17332811Y-20302081D01*
X17461383Y-20602081D02*
X17461383Y-20444939D01*
X17447097Y-20416367D01*
X17418526Y-20402081D01*
X17375669Y-20402081D01*
X17347097Y-20416367D01*
X17332811Y-20430653D01*
X17647097Y-20602081D02*
X17618526Y-20587796D01*
X17604240Y-20573510D01*
X17589954Y-20544939D01*
X17589954Y-20459224D01*
X17604240Y-20430653D01*
X17618526Y-20416367D01*
X17647097Y-20402081D01*
X17689954Y-20402081D01*
X17718526Y-20416367D01*
X17732811Y-20430653D01*
X17747097Y-20459224D01*
X17747097Y-20544939D01*
X17732811Y-20573510D01*
X17718526Y-20587796D01*
X17689954Y-20602081D01*
X17647097Y-20602081D01*
X17918526Y-20602081D02*
X17889954Y-20587796D01*
X17875669Y-20559224D01*
X17875669Y-20302081D01*
X18147097Y-20587796D02*
X18118526Y-20602081D01*
X18061383Y-20602081D01*
X18032811Y-20587796D01*
X18018526Y-20559224D01*
X18018526Y-20444939D01*
X18032811Y-20416367D01*
X18061383Y-20402081D01*
X18118526Y-20402081D01*
X18147097Y-20416367D01*
X18161383Y-20444939D01*
X18161383Y-20473510D01*
X18018526Y-20502081D01*
X18275669Y-20587796D02*
X18304240Y-20602081D01*
X18361383Y-20602081D01*
X18389954Y-20587796D01*
X18404240Y-20559224D01*
X18404240Y-20544939D01*
X18389954Y-20516367D01*
X18361383Y-20502081D01*
X18318526Y-20502081D01*
X18289954Y-20487796D01*
X18275669Y-20459224D01*
X18275669Y-20444939D01*
X18289954Y-20416367D01*
X18318526Y-20402081D01*
X18361383Y-20402081D01*
X18389954Y-20416367D01*
X18504240Y-20716367D02*
X18518526Y-20702081D01*
X18547097Y-20659224D01*
X18561383Y-20630653D01*
X18575669Y-20587796D01*
X18589954Y-20516367D01*
X18589954Y-20459224D01*
X18575669Y-20387796D01*
X18561383Y-20344939D01*
X18547097Y-20316367D01*
X18518526Y-20273510D01*
X18504240Y-20259224D01*
X11346383Y-20812367D02*
X11446383Y-20912367D01*
X11446383Y-20812367D02*
X11346383Y-20912367D01*
X11446383Y-20862367D02*
G75*
G03X11446383Y-20862367I-50000J0D01*
G01*
X11889954Y-20998081D02*
X11718526Y-20998081D01*
X11804240Y-20998081D02*
X11804240Y-20698081D01*
X11775669Y-20740939D01*
X11747097Y-20769510D01*
X11718526Y-20783796D01*
X12018526Y-20969510D02*
X12032811Y-20983796D01*
X12018526Y-20998081D01*
X12004240Y-20983796D01*
X12018526Y-20969510D01*
X12018526Y-20998081D01*
X12218526Y-20698081D02*
X12247097Y-20698081D01*
X12275669Y-20712367D01*
X12289954Y-20726653D01*
X12304240Y-20755224D01*
X12318526Y-20812367D01*
X12318526Y-20883796D01*
X12304240Y-20940939D01*
X12289954Y-20969510D01*
X12275669Y-20983796D01*
X12247097Y-20998081D01*
X12218526Y-20998081D01*
X12189954Y-20983796D01*
X12175669Y-20969510D01*
X12161383Y-20940939D01*
X12147097Y-20883796D01*
X12147097Y-20812367D01*
X12161383Y-20755224D01*
X12175669Y-20726653D01*
X12189954Y-20712367D01*
X12218526Y-20698081D01*
X12504240Y-20698081D02*
X12532811Y-20698081D01*
X12561383Y-20712367D01*
X12575669Y-20726653D01*
X12589954Y-20755224D01*
X12604240Y-20812367D01*
X12604240Y-20883796D01*
X12589954Y-20940939D01*
X12575669Y-20969510D01*
X12561383Y-20983796D01*
X12532811Y-20998081D01*
X12504240Y-20998081D01*
X12475669Y-20983796D01*
X12461383Y-20969510D01*
X12447097Y-20940939D01*
X12432811Y-20883796D01*
X12432811Y-20812367D01*
X12447097Y-20755224D01*
X12461383Y-20726653D01*
X12475669Y-20712367D01*
X12504240Y-20698081D01*
X12732811Y-20998081D02*
X12732811Y-20798081D01*
X12732811Y-20826653D02*
X12747097Y-20812367D01*
X12775669Y-20798081D01*
X12818526Y-20798081D01*
X12847097Y-20812367D01*
X12861383Y-20840939D01*
X12861383Y-20998081D01*
X12861383Y-20840939D02*
X12875669Y-20812367D01*
X12904240Y-20798081D01*
X12947097Y-20798081D01*
X12975669Y-20812367D01*
X12989954Y-20840939D01*
X12989954Y-20998081D01*
X13132811Y-20998081D02*
X13132811Y-20798081D01*
X13132811Y-20826653D02*
X13147097Y-20812367D01*
X13175669Y-20798081D01*
X13218526Y-20798081D01*
X13247097Y-20812367D01*
X13261383Y-20840939D01*
X13261383Y-20998081D01*
X13261383Y-20840939D02*
X13275669Y-20812367D01*
X13304240Y-20798081D01*
X13347097Y-20798081D01*
X13375669Y-20812367D01*
X13389954Y-20840939D01*
X13389954Y-20998081D01*
X13975669Y-20683796D02*
X13718526Y-21069510D01*
X14361383Y-20698081D02*
X14389954Y-20698081D01*
X14418526Y-20712367D01*
X14432811Y-20726653D01*
X14447097Y-20755224D01*
X14461383Y-20812367D01*
X14461383Y-20883796D01*
X14447097Y-20940939D01*
X14432811Y-20969510D01*
X14418526Y-20983796D01*
X14389954Y-20998081D01*
X14361383Y-20998081D01*
X14332811Y-20983796D01*
X14318526Y-20969510D01*
X14304240Y-20940939D01*
X14289954Y-20883796D01*
X14289954Y-20812367D01*
X14304240Y-20755224D01*
X14318526Y-20726653D01*
X14332811Y-20712367D01*
X14361383Y-20698081D01*
X14589954Y-20969510D02*
X14604240Y-20983796D01*
X14589954Y-20998081D01*
X14575669Y-20983796D01*
X14589954Y-20969510D01*
X14589954Y-20998081D01*
X14789954Y-20698081D02*
X14818526Y-20698081D01*
X14847097Y-20712367D01*
X14861383Y-20726653D01*
X14875669Y-20755224D01*
X14889954Y-20812367D01*
X14889954Y-20883796D01*
X14875669Y-20940939D01*
X14861383Y-20969510D01*
X14847097Y-20983796D01*
X14818526Y-20998081D01*
X14789954Y-20998081D01*
X14761383Y-20983796D01*
X14747097Y-20969510D01*
X14732811Y-20940939D01*
X14718526Y-20883796D01*
X14718526Y-20812367D01*
X14732811Y-20755224D01*
X14747097Y-20726653D01*
X14761383Y-20712367D01*
X14789954Y-20698081D01*
X14989954Y-20698081D02*
X15175669Y-20698081D01*
X15075669Y-20812367D01*
X15118526Y-20812367D01*
X15147097Y-20826653D01*
X15161383Y-20840939D01*
X15175669Y-20869510D01*
X15175669Y-20940939D01*
X15161383Y-20969510D01*
X15147097Y-20983796D01*
X15118526Y-20998081D01*
X15032811Y-20998081D01*
X15004240Y-20983796D01*
X14989954Y-20969510D01*
X15318526Y-20998081D02*
X15375669Y-20998081D01*
X15404240Y-20983796D01*
X15418526Y-20969510D01*
X15447097Y-20926653D01*
X15461383Y-20869510D01*
X15461383Y-20755224D01*
X15447097Y-20726653D01*
X15432811Y-20712367D01*
X15404240Y-20698081D01*
X15347097Y-20698081D01*
X15318526Y-20712367D01*
X15304240Y-20726653D01*
X15289954Y-20755224D01*
X15289954Y-20826653D01*
X15304240Y-20855224D01*
X15318526Y-20869510D01*
X15347097Y-20883796D01*
X15404240Y-20883796D01*
X15432811Y-20869510D01*
X15447097Y-20855224D01*
X15461383Y-20826653D01*
X15575669Y-20698081D02*
X15575669Y-20755224D01*
X15689954Y-20698081D02*
X15689954Y-20755224D01*
X16132811Y-21112367D02*
X16118526Y-21098081D01*
X16089954Y-21055224D01*
X16075669Y-21026653D01*
X16061383Y-20983796D01*
X16047097Y-20912367D01*
X16047097Y-20855224D01*
X16061383Y-20783796D01*
X16075669Y-20740939D01*
X16089954Y-20712367D01*
X16118526Y-20669510D01*
X16132811Y-20655224D01*
X16375669Y-20698081D02*
X16318526Y-20698081D01*
X16289954Y-20712367D01*
X16275669Y-20726653D01*
X16247097Y-20769510D01*
X16232811Y-20826653D01*
X16232811Y-20940939D01*
X16247097Y-20969510D01*
X16261383Y-20983796D01*
X16289954Y-20998081D01*
X16347097Y-20998081D01*
X16375669Y-20983796D01*
X16389954Y-20969510D01*
X16404240Y-20940939D01*
X16404240Y-20869510D01*
X16389954Y-20840939D01*
X16375669Y-20826653D01*
X16347097Y-20812367D01*
X16289954Y-20812367D01*
X16261383Y-20826653D01*
X16247097Y-20840939D01*
X16232811Y-20869510D01*
X16547097Y-20998081D02*
X16604240Y-20998081D01*
X16632811Y-20983796D01*
X16647097Y-20969510D01*
X16675669Y-20926653D01*
X16689954Y-20869510D01*
X16689954Y-20755224D01*
X16675669Y-20726653D01*
X16661383Y-20712367D01*
X16632811Y-20698081D01*
X16575669Y-20698081D01*
X16547097Y-20712367D01*
X16532811Y-20726653D01*
X16518526Y-20755224D01*
X16518526Y-20826653D01*
X16532811Y-20855224D01*
X16547097Y-20869510D01*
X16575669Y-20883796D01*
X16632811Y-20883796D01*
X16661383Y-20869510D01*
X16675669Y-20855224D01*
X16689954Y-20826653D01*
X17047097Y-20998081D02*
X17047097Y-20698081D01*
X17175669Y-20998081D02*
X17175669Y-20840939D01*
X17161383Y-20812367D01*
X17132811Y-20798081D01*
X17089954Y-20798081D01*
X17061383Y-20812367D01*
X17047097Y-20826653D01*
X17361383Y-20998081D02*
X17332811Y-20983796D01*
X17318526Y-20969510D01*
X17304240Y-20940939D01*
X17304240Y-20855224D01*
X17318526Y-20826653D01*
X17332811Y-20812367D01*
X17361383Y-20798081D01*
X17404240Y-20798081D01*
X17432811Y-20812367D01*
X17447097Y-20826653D01*
X17461383Y-20855224D01*
X17461383Y-20940939D01*
X17447097Y-20969510D01*
X17432811Y-20983796D01*
X17404240Y-20998081D01*
X17361383Y-20998081D01*
X17632811Y-20998081D02*
X17604240Y-20983796D01*
X17589954Y-20955224D01*
X17589954Y-20698081D01*
X17861383Y-20983796D02*
X17832811Y-20998081D01*
X17775669Y-20998081D01*
X17747097Y-20983796D01*
X17732811Y-20955224D01*
X17732811Y-20840939D01*
X17747097Y-20812367D01*
X17775669Y-20798081D01*
X17832811Y-20798081D01*
X17861383Y-20812367D01*
X17875669Y-20840939D01*
X17875669Y-20869510D01*
X17732811Y-20898081D01*
X17989954Y-20983796D02*
X18018526Y-20998081D01*
X18075669Y-20998081D01*
X18104240Y-20983796D01*
X18118526Y-20955224D01*
X18118526Y-20940939D01*
X18104240Y-20912367D01*
X18075669Y-20898081D01*
X18032811Y-20898081D01*
X18004240Y-20883796D01*
X17989954Y-20855224D01*
X17989954Y-20840939D01*
X18004240Y-20812367D01*
X18032811Y-20798081D01*
X18075669Y-20798081D01*
X18104240Y-20812367D01*
X18218526Y-21112367D02*
X18232811Y-21098081D01*
X18261383Y-21055224D01*
X18275669Y-21026653D01*
X18289954Y-20983796D01*
X18304240Y-20912367D01*
X18304240Y-20855224D01*
X18289954Y-20783796D01*
X18275669Y-20740939D01*
X18261383Y-20712367D01*
X18232811Y-20669510D01*
X18218526Y-20655224D01*
X11344783Y-21207567D02*
X11446383Y-21309167D01*
X11446383Y-21207567D02*
X11344783Y-21309167D01*
X11395583Y-21207567D02*
X11395583Y-21309167D01*
X11344783Y-21258367D02*
X11446383Y-21258367D01*
X11889954Y-21394081D02*
X11718526Y-21394081D01*
X11804240Y-21394081D02*
X11804240Y-21094081D01*
X11775669Y-21136939D01*
X11747097Y-21165510D01*
X11718526Y-21179796D01*
X12018526Y-21365510D02*
X12032811Y-21379796D01*
X12018526Y-21394081D01*
X12004240Y-21379796D01*
X12018526Y-21365510D01*
X12018526Y-21394081D01*
X12218526Y-21094081D02*
X12247097Y-21094081D01*
X12275669Y-21108367D01*
X12289954Y-21122653D01*
X12304240Y-21151224D01*
X12318526Y-21208367D01*
X12318526Y-21279796D01*
X12304240Y-21336939D01*
X12289954Y-21365510D01*
X12275669Y-21379796D01*
X12247097Y-21394081D01*
X12218526Y-21394081D01*
X12189954Y-21379796D01*
X12175669Y-21365510D01*
X12161383Y-21336939D01*
X12147097Y-21279796D01*
X12147097Y-21208367D01*
X12161383Y-21151224D01*
X12175669Y-21122653D01*
X12189954Y-21108367D01*
X12218526Y-21094081D01*
X12432811Y-21122653D02*
X12447097Y-21108367D01*
X12475669Y-21094081D01*
X12547097Y-21094081D01*
X12575669Y-21108367D01*
X12589954Y-21122653D01*
X12604240Y-21151224D01*
X12604240Y-21179796D01*
X12589954Y-21222653D01*
X12418526Y-21394081D01*
X12604240Y-21394081D01*
X12732811Y-21394081D02*
X12732811Y-21194081D01*
X12732811Y-21222653D02*
X12747097Y-21208367D01*
X12775669Y-21194081D01*
X12818526Y-21194081D01*
X12847097Y-21208367D01*
X12861383Y-21236939D01*
X12861383Y-21394081D01*
X12861383Y-21236939D02*
X12875669Y-21208367D01*
X12904240Y-21194081D01*
X12947097Y-21194081D01*
X12975669Y-21208367D01*
X12989954Y-21236939D01*
X12989954Y-21394081D01*
X13132811Y-21394081D02*
X13132811Y-21194081D01*
X13132811Y-21222653D02*
X13147097Y-21208367D01*
X13175669Y-21194081D01*
X13218526Y-21194081D01*
X13247097Y-21208367D01*
X13261383Y-21236939D01*
X13261383Y-21394081D01*
X13261383Y-21236939D02*
X13275669Y-21208367D01*
X13304240Y-21194081D01*
X13347097Y-21194081D01*
X13375669Y-21208367D01*
X13389954Y-21236939D01*
X13389954Y-21394081D01*
X13975669Y-21079796D02*
X13718526Y-21465510D01*
X14361383Y-21094081D02*
X14389954Y-21094081D01*
X14418526Y-21108367D01*
X14432811Y-21122653D01*
X14447097Y-21151224D01*
X14461383Y-21208367D01*
X14461383Y-21279796D01*
X14447097Y-21336939D01*
X14432811Y-21365510D01*
X14418526Y-21379796D01*
X14389954Y-21394081D01*
X14361383Y-21394081D01*
X14332811Y-21379796D01*
X14318526Y-21365510D01*
X14304240Y-21336939D01*
X14289954Y-21279796D01*
X14289954Y-21208367D01*
X14304240Y-21151224D01*
X14318526Y-21122653D01*
X14332811Y-21108367D01*
X14361383Y-21094081D01*
X14589954Y-21365510D02*
X14604240Y-21379796D01*
X14589954Y-21394081D01*
X14575669Y-21379796D01*
X14589954Y-21365510D01*
X14589954Y-21394081D01*
X14789954Y-21094081D02*
X14818526Y-21094081D01*
X14847097Y-21108367D01*
X14861383Y-21122653D01*
X14875669Y-21151224D01*
X14889954Y-21208367D01*
X14889954Y-21279796D01*
X14875669Y-21336939D01*
X14861383Y-21365510D01*
X14847097Y-21379796D01*
X14818526Y-21394081D01*
X14789954Y-21394081D01*
X14761383Y-21379796D01*
X14747097Y-21365510D01*
X14732811Y-21336939D01*
X14718526Y-21279796D01*
X14718526Y-21208367D01*
X14732811Y-21151224D01*
X14747097Y-21122653D01*
X14761383Y-21108367D01*
X14789954Y-21094081D01*
X15147097Y-21194081D02*
X15147097Y-21394081D01*
X15075669Y-21079796D02*
X15004240Y-21294081D01*
X15189954Y-21294081D01*
X15361383Y-21094081D02*
X15389954Y-21094081D01*
X15418526Y-21108367D01*
X15432811Y-21122653D01*
X15447097Y-21151224D01*
X15461383Y-21208367D01*
X15461383Y-21279796D01*
X15447097Y-21336939D01*
X15432811Y-21365510D01*
X15418526Y-21379796D01*
X15389954Y-21394081D01*
X15361383Y-21394081D01*
X15332811Y-21379796D01*
X15318526Y-21365510D01*
X15304240Y-21336939D01*
X15289954Y-21279796D01*
X15289954Y-21208367D01*
X15304240Y-21151224D01*
X15318526Y-21122653D01*
X15332811Y-21108367D01*
X15361383Y-21094081D01*
X15575669Y-21094081D02*
X15575669Y-21151224D01*
X15689954Y-21094081D02*
X15689954Y-21151224D01*
X16132811Y-21508367D02*
X16118526Y-21494081D01*
X16089954Y-21451224D01*
X16075669Y-21422653D01*
X16061383Y-21379796D01*
X16047097Y-21308367D01*
X16047097Y-21251224D01*
X16061383Y-21179796D01*
X16075669Y-21136939D01*
X16089954Y-21108367D01*
X16118526Y-21065510D01*
X16132811Y-21051224D01*
X16261383Y-21394081D02*
X16318526Y-21394081D01*
X16347097Y-21379796D01*
X16361383Y-21365510D01*
X16389954Y-21322653D01*
X16404240Y-21265510D01*
X16404240Y-21151224D01*
X16389954Y-21122653D01*
X16375669Y-21108367D01*
X16347097Y-21094081D01*
X16289954Y-21094081D01*
X16261383Y-21108367D01*
X16247097Y-21122653D01*
X16232811Y-21151224D01*
X16232811Y-21222653D01*
X16247097Y-21251224D01*
X16261383Y-21265510D01*
X16289954Y-21279796D01*
X16347097Y-21279796D01*
X16375669Y-21265510D01*
X16389954Y-21251224D01*
X16404240Y-21222653D01*
X16518526Y-21122653D02*
X16532811Y-21108367D01*
X16561383Y-21094081D01*
X16632811Y-21094081D01*
X16661383Y-21108367D01*
X16675669Y-21122653D01*
X16689954Y-21151224D01*
X16689954Y-21179796D01*
X16675669Y-21222653D01*
X16504240Y-21394081D01*
X16689954Y-21394081D01*
X17047097Y-21394081D02*
X17047097Y-21094081D01*
X17175669Y-21394081D02*
X17175669Y-21236939D01*
X17161383Y-21208367D01*
X17132811Y-21194081D01*
X17089954Y-21194081D01*
X17061383Y-21208367D01*
X17047097Y-21222653D01*
X17361383Y-21394081D02*
X17332811Y-21379796D01*
X17318526Y-21365510D01*
X17304240Y-21336939D01*
X17304240Y-21251224D01*
X17318526Y-21222653D01*
X17332811Y-21208367D01*
X17361383Y-21194081D01*
X17404240Y-21194081D01*
X17432811Y-21208367D01*
X17447097Y-21222653D01*
X17461383Y-21251224D01*
X17461383Y-21336939D01*
X17447097Y-21365510D01*
X17432811Y-21379796D01*
X17404240Y-21394081D01*
X17361383Y-21394081D01*
X17632811Y-21394081D02*
X17604240Y-21379796D01*
X17589954Y-21351224D01*
X17589954Y-21094081D01*
X17861383Y-21379796D02*
X17832811Y-21394081D01*
X17775669Y-21394081D01*
X17747097Y-21379796D01*
X17732811Y-21351224D01*
X17732811Y-21236939D01*
X17747097Y-21208367D01*
X17775669Y-21194081D01*
X17832811Y-21194081D01*
X17861383Y-21208367D01*
X17875669Y-21236939D01*
X17875669Y-21265510D01*
X17732811Y-21294081D01*
X17989954Y-21379796D02*
X18018526Y-21394081D01*
X18075669Y-21394081D01*
X18104240Y-21379796D01*
X18118526Y-21351224D01*
X18118526Y-21336939D01*
X18104240Y-21308367D01*
X18075669Y-21294081D01*
X18032811Y-21294081D01*
X18004240Y-21279796D01*
X17989954Y-21251224D01*
X17989954Y-21236939D01*
X18004240Y-21208367D01*
X18032811Y-21194081D01*
X18075669Y-21194081D01*
X18104240Y-21208367D01*
X18218526Y-21508367D02*
X18232811Y-21494081D01*
X18261383Y-21451224D01*
X18275669Y-21422653D01*
X18289954Y-21379796D01*
X18304240Y-21308367D01*
X18304240Y-21251224D01*
X18289954Y-21179796D01*
X18275669Y-21136939D01*
X18261383Y-21108367D01*
X18232811Y-21065510D01*
X18218526Y-21051224D01*
M02*
